<svg id="图层_1" data-name="图层 1" xmlns="http://www.w3.org/2000/svg" viewBox="0 0 1000 1000"><title>Airportal</title><rect width="1000" height="1000" style="fill:#5fb0ff"/><rect width="333.3333" height="333.3333" style="fill:#0078d4;isolation:isolate"/><rect y="333.3333" width="333.3333" height="333.3333" style="fill:#0364b8;isolation:isolate"/><rect y="666.6667" width="333.3333" height="333.3333" style="fill:#064a8c;isolation:isolate"/><rect x="666.6667" width="333.3333" height="333.3333" style="fill:#50d9ff;isolation:isolate"/><rect x="666.6667" y="333.3333" width="333.3333" height="333.3333" style="fill:#28a8ea;isolation:isolate"/><rect x="666.6667" y="666.6667" width="333.3333" height="333.3333" style="fill:#0078d4;isolation:isolate"/><rect x="333.3333" width="333.3333" height="333.3333" style="fill:#28a8ea;isolation:isolate"/><rect x="333.3333" y="333.3333" width="333.3333" height="333.3333" style="fill:#0076d0;isolation:isolate"/><rect x="333.3333" y="666.6667" width="333.3333" height="333.3333" style="fill:#0364b8;isolation:isolate"/><path d="M343.0148,355.8011c11.0363-20.87,27.6583-31.5626,47.8547-44.5544,43.6538-28.0814,90.3052-30.1256,110.5611-29.703,10.5186.2195,76.2087,2.5579,132.0132,51.1551,24.78,21.5794,43.2288,37.6457,49.5049,64.3564,3.7761,16.07,2.2857,32.3336,14.8515,42.9043,9.53,8.0173,19.6058,6.4168,31.3532,8.2509,41.7251,6.5143,68.0578,50.6621,74.2574,61.0561,25.43,42.6351,19.9376,84.6974,18.1518,95.7095-2.0471,12.6231-10.4587,53.7271-44.5544,82.5083-17.565,14.827-40.9619,25.5528-148.5149,29.703-35.3633,1.3645-81.9544,2.1-136.9637,0-24.865.2155-60.03.362-102.31,0-75.8518-.65-84.637-2.1655-94.0594-4.9505-40.5552-11.987-90.9909-46.9151-110.5611-107.2608-18.4955-57.0317-2.7188-116.095,28.0528-153.4653,14.6607-17.8046,37.0726-45.0226,70.9571-51.1551,13.0244-2.3572,27.9861-1.643,41.2541-13.2013C335.39,377.9841,336.2625,368.57,343.0148,355.8011Z" style="fill:#fff"/></svg>