<?xml version="1.0" encoding="utf-8"?>
<!-- Generator: Adobe Illustrator 23.0.1, SVG Export Plug-In . SVG Version: 6.00 Build 0)  -->
<svg version="1.1" id="图层_1" xmlns="http://www.w3.org/2000/svg" xmlns:xlink="http://www.w3.org/1999/xlink" x="0px" y="0px"
	 viewBox="0 0 1000 1000" style="enable-background:new 0 0 1000 1000;" xml:space="preserve">
<style type="text/css">
	.st0{fill:#1488F5;}
	.st1{fill:#FFFFFF;}
</style>
<title>Baidu_fanyi</title>
<circle class="st0" cx="500" cy="500" r="500"/>
<path class="st1" d="M250,413.8h79.7l17.2-21.6l32.3,28l-19.4,15.1v196.1l69-73.3l6.5,4.3c-20.1,31.6-36.7,56.8-49.6,75.4
	c-12.9,18.7-23,36.6-30.2,53.9l-32.3-32.3c7.2-7.2,10-16.5,8.6-28V426.7h-21.6c-11.5,0-25.2,2.2-40.9,6.5L250,413.8z M303.9,258.6
	l6.5-4.3c23,14.4,39.8,27,50.6,37.7c10.8,10.8,14.7,21.9,11.9,33.4c-2.9,11.5-8.6,20.1-17.2,25.9c-8.6,5.8-14.4-1.4-17.2-21.6
	C334.1,311.1,322.6,287.4,303.9,258.6L303.9,258.6z M415.9,275.9h217.7l19.4-21.6l36.6,34.5l-21.6,8.6c-34.5,46-61.8,79-81.9,99.1
	c41.7,25.9,96.3,40.2,163.8,43.1v8.6c-21.6,2.9-34.5,13-38.8,30.2c-51.7-12.9-101.3-34.5-148.7-64.7c-53.8,39.9-115.5,67.8-181,81.9
	l-2.2-6.5c64.7-23,118.5-53.9,161.6-92.7c-31.6-33-56.8-69-75.4-107.8c-7.2,0-17.2,2.2-30.2,6.5L415.9,275.9z M549.6,745.7
	c1.4-47.4,2.1-92.7,2.2-135.8h-64.7c-16.7-0.1-33.4,2.1-49.6,6.5L418.1,597h133.6v-73.3h-49.6c-11.5,0-25.2,2.2-40.9,6.5l-19.4-19.4
	h109.9c0-33-0.7-56.7-2.2-71.1l49.6,21.6l-17.2,17.2v32.3h62.5l28-25.9l36.6,38.8H581.9V597H681l30.2-28l36.6,40.9H581.9
	c0,53.2,0.7,93.4,2.2,120.7L549.6,745.7z M476.3,288.8c20.1,31.6,48.8,61.8,86.2,90.5c28.7-28.7,52.4-58.9,71.1-90.5L476.3,288.8z"
	/>
</svg>
