<?xml version="1.0" encoding="utf-8"?>
<!-- Generator: Adobe Illustrator 23.0.1, SVG Export Plug-In . SVG Version: 6.00 Build 0)  -->
<svg version="1.1" id="图层_1" xmlns="http://www.w3.org/2000/svg" xmlns:xlink="http://www.w3.org/1999/xlink" x="0px" y="0px"
	 viewBox="0 0 1000 1000" style="enable-background:new 0 0 1000 1000;" xml:space="preserve">
<style type="text/css">
	.st0{fill:none;}
	.st1{fill:#168EF9;}
	.st2{fill:#FFFFFF;}
</style>
<title>Beautiful.ai</title>
<circle class="st0" cx="500" cy="500" r="500"/>
<rect x="146.5" y="146.5" class="st1" width="707" height="707"/>
<path class="st2" d="M565.6,569.9c0,47.4-11.4,83-34.3,106.7c-22.9,23.7-50.7,35.6-83.4,35.6c-18,0-33.5-3.3-46.6-9.8
	c-13.1-6.5-24.5-17.1-34.3-31.9v36.8h-49V287.9h49v181.5c9.8-14.7,21.3-25.7,34.3-33.1c13.1-7.4,28.6-11,46.6-11
	c32.7,0,60.5,12.3,83.4,36.8C554.1,486.5,565.5,522.5,565.6,569.9z M511.6,569.9c0-31-6.1-55.6-18.4-73.6c-12.3-18-30.7-27-55.2-27
	c-19.6,0-36.4,9-50.3,27c-13.9,18-20.9,42.5-20.8,73.6c0,31.1,6.9,55.2,20.8,72.3c13.9,17.2,30.6,25.7,50.3,25.7
	c24.5,0,42.9-8.6,55.2-25.7S511.6,600.9,511.6,569.9z"/>
<circle class="st2" cx="675" cy="676.8" r="35.3"/>
</svg>
