<svg id="图层_1" data-name="图层 1" xmlns="http://www.w3.org/2000/svg" viewBox="0 0 1000 1000"><title>Cowtransfer</title><rect width="1000" height="1000" style="fill:#fdda66;isolation:isolate"/><path d="M290.0327,197.8646c2.38-5.284,8.3224-11.6366,15.5229-11.438,8.2835.2286,13.3043,8.9918,14.7058,11.438,5.6633,9.8845,1.7855,16.4439,3.268,29.4117,1.6059,14.0472,8.1279,23.5992,18.7909,39.2157,6.2744,9.1893,12.5181,18.3336,23.6928,26.9608a93.5738,93.5738,0,0,0,42.4836,17.9738H598.0392c14.2006-3.5909,35.76-11.74,52.2876-31.0457,16.6356-19.4309,29.374-51.5645,26.9608-69.4444a22.869,22.869,0,0,1,1.634-13.0719c.49-1.0336,5.4664-11.1095,15.5228-11.438,10.1406-.3311,15.7627,9.5653,16.34,10.621a22.4485,22.4485,0,0,1,2.451,12.2549c-1.83,31.0223-2.7452,46.5335-8.9869,61.2745-17.6708,41.7324-54.79,63.9775-71.8955,69.4444-7.8766,2.5174-31.59,9.8037-23.6928,7.353H410.1307a136.1323,136.1323,0,0,1-66.1765-25.3268c-4.5566-3.3259-27.9037-20.8043-43.3006-53.1046,0,0-13.0606-27.3992-12.2549-63.7255A18.8608,18.8608,0,0,1,290.0327,197.8646Z" style="isolation:isolate"/><circle cx="371.732" cy="437.2436" r="28.5948"/><circle cx="371.732" cy="666.8188" r="28.5948"/><circle cx="617.6471" cy="666.8188" r="28.5948"/><rect x="577.6144" y="426.8102" width="80.0654" height="27.4028" rx="13.6549"/><path d="M628.3605,545.1792H371.64C304.7378,545.1792,250,599.9169,250,666.8187v0c0,66.9017,54.7378,121.64,121.64,121.64h256.721c66.9017,0,121.64-54.7378,121.64-121.6395v0C750,599.9169,695.2622,545.1792,628.3605,545.1792Zm83.2408,121.64a79.891,79.891,0,0,1-79.6568,79.6568H368.0555a79.891,79.891,0,0,1-79.6568-79.6568v0a79.891,79.891,0,0,1,79.6568-79.6568h263.889a79.891,79.891,0,0,1,79.6568,79.6568Z" style="isolation:isolate"/></svg>