<svg id="图层_1" data-name="图层 1" xmlns="http://www.w3.org/2000/svg" xmlns:xlink="http://www.w3.org/1999/xlink" viewBox="0 0 800.5624 800.973"><defs><clipPath id="clip-path" transform="translate(-98.8796 -99.907)"><rect x="99" y="100" width="800.88" height="801.84" style="fill:none"/></clipPath></defs><title>Google</title><g style="clip-path:url(#clip-path)"><path d="M266.407,500.396a233.0061,233.0061,0,0,1,12.289-74.344L140.864,322.97a395.8767,395.8767,0,0,0-.066,354.7109L278.56,574.431a232.4388,232.4388,0,0,1-12.153-74.035" transform="translate(-98.8796 -99.907)" style="fill:#fbbc05"/><path d="M508.482,263.747a240.0422,240.0422,0,0,1,150.765,52.77l119.16-116.496C705.806,138.138,612.724,99.907,508.482,99.907c-161.864,0-300.989,90.625-367.618,223.0631L278.763,426.052c31.746-94.414,122.265-162.305,229.719-162.305" transform="translate(-98.8796 -99.907)" style="fill:#ea4335"/></g><path d="M508.482,737.04c-107.489,0-198.008-67.891-229.786-162.305L140.864,677.817C207.458,810.255,346.587,900.88,508.482,900.88c99.871,0,195.2419-34.715,266.851-99.805L644.466,702.021c-36.895,22.765-83.387,35.019-136.02,35.019" transform="translate(-98.8796 -99.907)" style="fill:#34a853"/><path d="M899.442,500.396c0-23.657-3.753-49.153-9.316-72.809H508.446V582.313H728.13c-10.957,52.77-40.859,93.321-83.629,119.708l130.832,99.054c75.199-68.336,124.109-170.121,124.109-300.679" transform="translate(-98.8796 -99.907)" style="fill:#4285f4"/></svg>