<svg id="图层_1" data-name="图层 1" xmlns="http://www.w3.org/2000/svg" viewBox="0 0 510.6387 500"><title>Lanzou_cloud</title><rect width="500" height="500" style="fill:#f60"/><path d="M272,601s-1.9663-97.1389,27-137c6.3964-8.8022,15.9155-21.9017,33-33,28.0552-18.225,42.9756-9.2682,57-24,18.7091-19.6528-1.1176-42.3553,17-78,2.2621-4.45,16.32-31.119,47-43,28.41-11.002,59.0174-1.3747,67,1,20.4932,6.0965,25.87,13.5343,34,10,15.1474-6.5846,5.44-36.2935,19-65,14.6265-30.964,48.0859-43.3213,77-54,63.9836-23.6307,130.1082-15.41,130.1387-14.7385.006.1317-2.4854.3825-8.1387.7385l-2,437Z" transform="translate(-269.5 -101.5)" style="fill:#fff"/></svg>