<svg id="图层_1" data-name="图层 1" xmlns="http://www.w3.org/2000/svg" xmlns:xlink="http://www.w3.org/1999/xlink" viewBox="0 0 1000 1000"><defs><linearGradient id="未命名的渐变_31" x1="146.44661" y1="146.44661" x2="853.55339" y2="853.55339" gradientUnits="userSpaceOnUse"><stop offset="0" stop-color="#1e9cd7"/><stop offset="0.25" stop-color="#1e9cd7"/><stop offset="0.5" stop-color="#0e87ca"/><stop offset="0.75" stop-color="#0075be"/><stop offset="1" stop-color="#005b97"/></linearGradient></defs><title>Moakt</title><circle cx="500" cy="500" r="500" style="fill:url(#未命名的渐变_31)"/><path d="M334.69707,536.74788A239.01254,239.01254,0,0,1,357.74394,433.3808q23.05208-48.79227,63.34763-77.10074,40.29033-28.31889,87.75939-28.31889,63.51434,0,91.52065,56.01264h2.386l12.284-48.67765h60.399L635.838,508.02264q-15.03465,66.90573-15.02422,87.72814,0,14.347,6.80361,21.161,6.814,6.82967,17.71234,6.82446,26.88107,0,50.55307-23.36986,23.66159-23.36464,37.61266-64.30618,13.95627-40.94674,13.96148-89.39517,0-60.71683-25.57869-106.44069-25.58389-45.71344-74.36053-70.4534Q598.741,245.04663,532.57506,245.03621q-82.89371,0-145.47033,36.49782-62.59226,36.50823-97.20944,103.17953-34.61719,66.68693-34.612,151.26331,0,65.82735,25.94336,115.28644a179.28624,179.28624,0,0,0,75.28782,76.06925q49.33926,26.58412,116.95348,26.59975,102.08554,0,203.16044-53.88716l20.15038,42.645Q590.59858,802.735,472.1135,802.735q-79.5492,0-141.011-31.89261-61.45137-31.89783-96.28215-93.29189Q200,616.16164,200,535.98729q0-97.20944,43.489-175.15412,43.47857-77.93946,119.03728-120.75642,75.54831-42.80653,169.37156-42.81174,82.87809,0,143.59491,30.882t92.61466,87.1655Q799.98958,371.60645,800,445.98781q0,62.7798-20.61924,113.609-20.614,50.83961-57.40879,79.66382Q685.18242,668.09524,641.235,668.09q-31.69466,0-50.08422-16.62875-18.4104-16.62876-18.4-45.79159,0-14.75333,2.00046-22.98435h-2.386Q554.59566,621.7879,521.82263,644.939,489.034,668.10045,451.48384,668.09q-54.2935,0-85.54014-35.82058Q334.68665,596.44886,334.69707,536.74788Zm248.056-93.47943q0-31.03825-20.85887-50.99068-20.84845-19.95763-54.00177-19.96284-29.39727,0-53.83507,20.9839-24.443,20.9735-40.34244,60.21151a217.73687,217.73687,0,0,0-15.889,82.54988q0,40.25909,16.23283,63.11841,16.238,22.84892,48.3755,22.84891,23.56782,0,46.13541-15.18051,22.56759-15.17531,39.65479-42.97845,17.0976-27.80314,25.8079-64.30618Q582.75306,463.05416,582.75305,443.26845Z" style="fill:#fff"/></svg>