<svg id="图层_1" data-name="图层 1" xmlns="http://www.w3.org/2000/svg" viewBox="0 0 1000 1000"><title>PDF24</title><rect width="1000" height="1000" style="fill:#fff"/><path id="path1261" d="M709.2959,668.3241a83.052,83.052,0,0,0-22.2528-31.9591,171.1881,171.1881,0,0,0-54.5865-33.6756,162.4494,162.4494,0,0,0-56.7087-11.0484,102.9963,102.9963,0,0,0-30.96,3.121,45.4423,45.4423,0,0,0-28.37,23.0018l-12.484-1.4044a173.1862,173.1862,0,0,1-36.6718-8.177l-1.9975-.9051a30.8044,30.8044,0,0,0-36.0164,4.0261,28.6186,28.6186,0,0,0-5.8987-.5306,31.5848,31.5848,0,0,0-21.847,9.363,31.21,31.21,0,0,0-8.7389,22.0656,31.6476,31.6476,0,0,0,9.363,21.847,189.015,189.015,0,0,0,31.21,24.25,88.9807,88.9807,0,0,0,41.1661,12.484,72.4082,72.4082,0,0,0,35.6419-8.3331A277.7135,277.7135,0,0,0,532.21,709.896a237.6612,237.6612,0,0,0,51.7151,27.5273,205.7916,205.7916,0,0,0,24.968,8.3019,115.1655,115.1655,0,0,0,35.7043,4.1822,75.9026,75.9026,0,0,0,37.4521-11.5166,67.4446,67.4446,0,0,0,23.907-26.8406C712.136,697.9737,714.5391,682.65,709.2959,668.3241Z"/><path id="path1263" d="M549.6563,287.6862a148.494,148.494,0,0,0-12.7649-9.1758,104.1482,104.1482,0,0,0-33.1139-15.605l-.7178-.1873a123.06,123.06,0,0,0-45.13-4.4318c-35.2674,3.121-67.7259,20.4738-92.101,45.6291a134.2022,134.2022,0,0,0-16.0731,20.1617,24.9683,24.9683,0,0,0-21.0044-1.1548,58.0816,58.0816,0,0,0-16.4789,11.7038c-10.8923,10.1433-19.35,23.4076-16.9159,38.9814a9.74,9.74,0,0,0,.4057,2.1535,36.36,36.36,0,0,0-1.4356,6.7726c-.9675,9.9248,3.121,20.7234,12.89,24.75s20.0057.3746,27.7146-6.46a46.4823,46.4823,0,0,0,9.519-2.528,40.3862,40.3862,0,0,0,36.89,20.1617,30.0865,30.0865,0,0,0,27.3088-29.3375,74.8994,74.8994,0,0,0-2.4656-18.9757,59.9573,59.9573,0,0,1-.9987-7.0535V358.533c.2185-2.2783.5306-4.5567.9675-6.8038a4.3466,4.3466,0,0,1,.25-1.5293c.25-.6554.4057-1.342.6242-1.9974a67.9551,67.9551,0,0,1,2.4968-6.4917c.4682-1.0611.9675-2.1223,1.4981-3.121s.6866-1.3733,1.0611-2.06c.9051-1.6229.7491-1.3733-.4993.749a36.2964,36.2964,0,0,1,6.9286-9.6751,24.5009,24.5009,0,0,0,7.5841-1.0923l1.03-.4682-.4681.2185a20.3788,20.3788,0,0,1,3.9012-.9675c2.4032-.593,4.8064-1.1236,7.2095-1.6229,5.0249-1.03,10.0809-1.935,15.1681-2.6529a248.9319,248.9319,0,0,1,30.0866-2.3719h4.12a72.9019,72.9019,0,0,1,7.3656.25c5.1184.25,10.2681.6554,15.3553,1.2171a244.54,244.54,0,0,1,30.3674,5.3994c8.7388,2.1223,18.5388-5.8987,19.4439-14.4815A25.9355,25.9355,0,0,0,549.6563,287.6862ZM371.1972,364.4941a16.1069,16.1069,0,0,0-2.2471-3.5267c.6866-1.6541,1.3732-3.121,2.1222-4.9A75.8341,75.8341,0,0,0,371.1972,364.4941Zm2.1847,15.6051-.9675-2.372v-2.4656l.1872-1.186c.3746,2.1223.78,4.2446,1.2172,6.242l-.1872-.3121Z"/><path id="path1265" d="M335.805,410.6851c5.2432-.1873,10.5178-.6555,15.761-.437a40.3877,40.3877,0,0,1,10.2994,1.9975,86.8649,86.8649,0,0,1,12.7025,4.9c7.8961,3.9013,15.605,8.1146,23.3763,12.4841,5.8051,3.121,6.242,5.3369,2.6216,10.8611a33.39,33.39,0,0,0-1.8413,3.8388,21.8472,21.8472,0,0,1-5.6179-1.56C380.03,435.2162,367.0774,427.4137,354,419.83c-4.463-2.59-9.2069-4.7439-13.826-7.1159l-4.4631-1.3732Z" style="fill:#8b898a"/><path id="path1267" d="M403.6557,423.5436a78.7121,78.7121,0,0,0-25.53-11.9223c-15.605-3.62-31.21-6.71-47.5017-5.4617-4.8688.3745-9.363,1.3108-12.484,5.5241-6.5229,9.3631-15.6051,12.2032-26.31,10.2682a73.5,73.5,0,0,0-28.0891,1.0923,15.6058,15.6058,0,0,0-6.0235,4.0885c-2.3408,2.06-4.2134,4.65-6.6478,6.5541-4.9624,3.9949-11.2044,3.4644-17.4464,3.6828-6.71.3121-13.4515.78-20.1929.9051-6.242,0-12.484-.2808-18.5388-.3433a19.1711,19.1711,0,0,0-3.4955.6554c20.661,3.9013,41.6342,3.9325,62.5762,4.6815a22.8456,22.8456,0,0,0,7.5528-2.091A2.84,2.84,0,0,0,262.93,439.43a15.0118,15.0118,0,0,1,13.7636-11.9534q17.5557-.3277,35.1425,0a11.9853,11.9853,0,0,0,9.1446-3.121,60.5172,60.5172,0,0,1,18.726-11.579l-4.4942-1.4044-.9987-.25,1.0923-.25c5.2745-.1872,10.5178-.6554,15.605-.4369a41.509,41.509,0,0,1,10.2994,1.9974,90.5193,90.5193,0,0,1,12.7025,4.9c7.8961,3.9012,15.605,8.1458,23.4075,12.484,3.9325,2.1535,5.3994,3.8389,4.7752,6.4605a66.86,66.86,0,0,0,7.3343-10.05C408.5556,426.7582,407.2136,425.9156,403.6557,423.5436Z"/><path id="path1269" d="M246.3881,438.0563c-6.7414.3121-13.4827.78-20.2241.9051-6.242,0-12.484-.2809-18.5388-.3433a17.22,17.22,0,0,0-3.4955.6554h0a81.12,81.12,0,0,0-9.8-3.121c-4.7127-.8739-9.363-1.1548-14.263-1.623a50.7268,50.7268,0,0,1-7.584-.6554,76.3889,76.3889,0,0,1-8.7388-3.3707l-.437-.5305h0l-1.0923-.25h0l-11.7662-6.242c-7.9586-4.1822-16.4477-7.5841-22.4088-14.7624a30.9263,30.9263,0,0,1-.1561-9.363,6.8663,6.8663,0,0,0-.3121-6.6478h0c3.121-4.65,8.5516-2.4031,12.484-4.463,3.2771,3.8076,8.4268,2.3408,12.328,4.4006,5.15,2.6529,10.1745,5.6179,15.4178,7.99a62.2067,62.2067,0,0,0,9.363,2.6841,14.4188,14.4188,0,0,1,9.363,6.242l-.749,5.2121,7.6152,2.4968a.94.94,0,0,0,.4058.593c6.242,4.307,10.4241,11.1108,17.7585,13.8573a20.6348,20.6348,0,0,0,4.65.593c7.7713.905,15.605,1.6229,23.3139,2.8089A24.0906,24.0906,0,0,1,246.3881,438.0563Z" style="fill:#8b898a"/><path id="path1271" d="M163.8375,430.4722a76.4075,76.4075,0,0,0,8.7388,3.3707,50.7534,50.7534,0,0,0,7.5841.6554c4.7751.4682,9.55.7491,14.263,1.6229a81.1594,81.1594,0,0,1,9.8,3.121c-10.5178,1.6542-21.0044,3.9013-31.647,1.28-11.142-2.7153-22.5961-4.4943-32.9266-9.9248-4.5567-2.4032-8.9573-5.0561-13.4516-7.6153a1.4035,1.4035,0,0,1-.5617-.4682c-2.7465-5.5553-7.5217-10.705-4.3694-17.6024,1.9038-4.2134,4.3694-8.1771,6.5853-12.2656a6.8661,6.8661,0,0,1,.3121,6.6477,30.93,30.93,0,0,0,.156,9.3631,20.8482,20.8482,0,0,0,9.7064,12.484,94.2134,94.2134,0,0,0,12.0783,5.649,117.5927,117.5927,0,0,0,12.484,3.121h0l1.0923.25h0Z"/><path id="path1273" d="M177.6011,403.32a62.2134,62.2134,0,0,1-9.363-2.6841c-5.2433-2.372-10.2681-5.3369-15.4178-7.99-3.9012-2.06-9.0509-.593-12.3279-4.4006-3.9949,2.06-9.3631-.1872-12.4841,4.463a55.34,55.34,0,0,1,3.87-6.242c.53-.6866,2.06-.78,3.121-.8426,9.8936-.437,18.1642,3.8388,26.2476,8.9261C166.3967,397.8265,172.0769,400.3545,177.6011,403.32Z"/><path id="path1275" d="M193.83,417.1767l-7.6153-2.4968.7491-5.2121A13.5766,13.5766,0,0,1,193.83,417.1767Z"/><path id="path1277" d="M162.4955,429.7232a117.6005,117.6005,0,0,1-12.4841-3.121,94.226,94.226,0,0,1-12.0783-5.649,20.8483,20.8483,0,0,1-9.7063-12.4841c5.9611,7.1784,14.45,10.58,22.4088,14.7624Z"/><path id="path1279" d="M163.8375,430.4722l-.437-.53Z"/><path id="path1281" d="M163.4942,429.9417l-1.0924-.25Z"/><path id="path1283" d="M199.9475,450.8836l-1.4668.9051h-.4682a4.3064,4.3064,0,0,0-1.935,1.28l-.9051.593a51.4978,51.4978,0,0,1-5.5866,2.7465,2.8084,2.8084,0,0,0-.8739,0c-.3745,0-.5618.4369-.9051.6242-1.935.9051-3.87.8427-5.7114,1.6541a19.0369,19.0369,0,0,1-3.3083,1.2484l-1.342.3121c-1.7478.4058-3.5268.7179-5.3057.9675h-.9363a21.265,21.265,0,0,0-3.2771.4682h-4.0573a4.337,4.337,0,0,0-1.4981,0,.5305.5305,0,0,1-.1872.25h0a4.9031,4.9031,0,0,1-.7179-.2809h-.3433a2.7153,2.7153,0,0,0-2.1535-.1873h-.5618a8.4337,8.4337,0,0,0-1.3732.2185h-.1873a2.34,2.34,0,0,1-1.4044-.6242H155.13a2.7153,2.7153,0,0,0-2.2159,0h-.4682a2.4658,2.4658,0,0,0-1.56-.4681h-.8427a36.6706,36.6706,0,0,1-4.2757-.8115h-.3746a5.6779,5.6779,0,0,0-.9363-.3433h-.593a10.7007,10.7007,0,0,0-2.528-.6242h0l-.6554-.2809h0a4.5246,4.5246,0,0,1-1.3732-.3745h0s-.6554-.2185-.4682-.4682-.4681,0-.6242,0c-.1872-.4681-1.9974-.9363-2.7153-.9987l-1.4668-.9051c-.9051-.4681-1.28-.6242-1.5293-.3121l-1.2172-.6242v.3121h0l-.2809.5618h0c.749.3433,1.3732.5618,1.9974.8739a6.8039,6.8039,0,0,0,2.2784,1.3108l.8114.3433,3.121,1.2484a8.7719,8.7719,0,0,0,1.7478.5618h.1873a26.6085,26.6085,0,0,0,3.121.8427l.6866.156h.1873a5.0556,5.0556,0,0,0,2.59,1.0924,31.212,31.212,0,0,0,8.77,1.1548h1.5917a37.5113,37.5113,0,0,0,4.5879,0,1.5289,1.5289,0,0,0,.749,0c0,.7178,2.7465.5617,3.5892.312h0a15.6069,15.6069,0,0,1,3.4955-.2184c.2809-.1873.6554-.2809.8739-.4682h1.1548a4.4953,4.4953,0,0,0,1.186.4682c.2184-.593,1.342-.7491,1.9662-.8427l1.186-.1872h0a6.901,6.901,0,0,0,1.0923-.25h0c.5618,0,.9988-.25,1.0612-.593h.3433a4.5584,4.5584,0,0,0,1.7165,0c.6554,0,1.3109-.593,1.9975-.8115l.8427-.4057c1.0923-.3121,2.1222-.7179,3.121-1.0924A11.7014,11.7014,0,0,0,190.46,458a7.3322,7.3322,0,0,0,1.9038-.9987h0c1.4669-.6866,2.8713-1.4981,4.3382-2.2159l4.1509-2.59ZM138.651,457.75l-.7491-.3121h0Z" style="fill:#8b898a"/><path id="path1285" d="M201.82,462.4313l-1.2171.593h-.3746a2.8717,2.8717,0,0,0-1.6229.8115l-.7178.4681-4.4006,1.9663a1.7148,1.7148,0,0,0-.6867,0c-.3121,0-.4369.3745-.6866.5306-1.4357.8426-3.121.593-4.3694,1.4356a14.0417,14.0417,0,0,1-2.4344,1.3109l-.9675.3745-3.9013,1.4044H179.63a12.4841,12.4841,0,0,0-2.372.9363l-.5618.1873h-.3745a5.7327,5.7327,0,0,0-1.03,0,2.7129,2.7129,0,0,0-.5618.3433h-.5306a2.122,2.122,0,0,0-1.1547.2185.3437.3437,0,0,1,0,.25H172.42l-.1873.2185a1.6539,1.6539,0,0,0-1.6229.3745h-.437a3.9358,3.9358,0,0,0-.9363.5617h0a1.5286,1.5286,0,0,1-1.2172,0l-.1872.1873a1.81,1.81,0,0,0-1.5293.749h-.437a1.5605,1.5605,0,0,0-1.2484,0h-.6242a27.0656,27.0656,0,0,1-3.121.593H160.56a2.0325,2.0325,0,0,0-.749,0h-.437a8.1143,8.1143,0,0,0-1.9662,0h-.5306a4.053,4.053,0,0,1-1.0611,0h0s-.5306,0-.4057-.3745a2.0592,2.0592,0,0,1-.4682,0c0-.3745-1.4669-.5305-2.0286-.5617l-.9988-.6867c-.5929-.4369-.8738-.5305-1.1235-.2808l-.78-.6242-.2184.25h0l-.437.4681h0c.5306.4057.9675.6866,1.4357.9987a3.6515,3.6515,0,0,0,1.779,1.1236l.6554.25a19.2482,19.2482,0,0,0,2.5592.6554,4.6172,4.6172,0,0,0,1.4356.1561h.1561a11.4512,11.4512,0,0,0,2.528,0h.6866a3.3086,3.3086,0,0,0,2.2159,0,20.4445,20.4445,0,0,0,6.6166-1.6853l1.0923-.6242,3.3707-.9675a.938.938,0,0,0,.5618,0c.3121.6866,2.1535,0,2.7153-.437h0a9.3611,9.3611,0,0,1,2.59-.8114c0-.1873.4057-.3433.5618-.5618l.8427-.2809a2.7155,2.7155,0,0,0,.9987.3434c0-.593.8427-.8739,1.3108-1.03l.9051-.25h0a3.3994,3.3994,0,0,0,.78-.3121h0a.7167.7167,0,0,0,.7179-.6554h.2184a3.9327,3.9327,0,0,0,1.3421,0,11.1441,11.1441,0,0,0,1.4356-.8115,2.7112,2.7112,0,0,0,.6242-.3745l2.372-.9675a11.982,11.982,0,0,0,2.6216-.9363,4.7127,4.7127,0,0,0,1.4669-.78h0c2.2784-.9988,4.5255-2.0287,6.7726-3.121ZM155.005,476.4134h0Z" style="fill:#8b898a"/><path id="path1287" d="M204.0673,475.3211l-.4994.4057h-.2185c-.4057,0-.4681.3434-.6242.6242l-.2184.3433-1.7478,1.4981h-.4369c-.1249,0,0,.2809,0,.437-.4682.6554-1.4981.4369-1.9039,1.1235a3.1206,3.1206,0,0,1-.8114,1.0924l-.3745.3121-1.5917,1.186h-.3746c-.4369,0-.6242.5618-.9051.8115l-.2184.1872h-.6867c-.0936,0,0,.1873-.1872.2809H193.05a.6579.6579,0,0,0-.5618.1872.81.81,0,0,1,0,.25h-.3745v.1873c-.3433,0-.6866,0-.7178.3745h-.1873a1.0619,1.0619,0,0,0-.25.5306h0a.6867.6867,0,0,1-.7178,0h0a.5618.5618,0,0,0-.4994.749h-.2184c-.3121,0-.4994,0-.593.1873l-.2809.156c-.4057.3121-.8115.6555-1.28.9675h0a.8424.8424,0,0,0-.3745,0h0a1.5292,1.5292,0,0,0-.7491.6555h-.2809a1.4037,1.4037,0,0,1-.4057.3433h0s-.1873.1872-.3121,0,0,.2185,0,.3121-.78.3121-.8739.6242a2.0608,2.0608,0,0,0-.6242.1872c-.3433,0-.4681.25-.3121.593l-.4369.25.1872.2809h0l.2809.5618h0a4.552,4.552,0,0,1,.6554-.4994,1.0612,1.0612,0,0,0,.9051-.3121l.2809-.1561a11.8488,11.8488,0,0,1,1.0612-.6242c.1872,0,.4681,0,.5618-.3433h0a5.3089,5.3089,0,0,0,.9363-.7178h.2184a.9363.9363,0,0,0,1.0612-.1873c.8426-.6554,2.091-.8738,2.6216-1.935l.3121-.5617.9675-.4682a.156.156,0,0,0,.2185,0c.4681.593,1.1548,0,1.3108-.4058h0s.749-.78,1.0611-.7178,0-.3121,0-.4681l.3434-.2809c.25,0,.4993.3121.7178.3121a.6864.6864,0,0,1,.2809-.905l.4057-.1873h0a1.3727,1.3727,0,0,0,.3433-.25h0c.2185,0,.2809-.25,0-.5305h.7179c.1872,0,.312-.4994.4681-.6867a1.1573,1.1573,0,0,0,.1873-.3121l.9675-.78c.4994,0,.749-.437,1.1236-.7491s.4681-.2809.4993-.593h0l2.7153-2.3719Zm-19.0694,13.92-.25.1561h0Z" style="fill:#8b898a"/><path id="path1289" d="M780.08,475.8517c-4.3694-10.8923-11.579-20.0057-18.7261-29.3375a110.89,110.89,0,0,0-30.9916-26.6222,143.0343,143.0343,0,0,0-51.3093-20.3489,374.9424,374.9424,0,0,0-49.0622-6.0236,1.7786,1.7786,0,0,1-.4058-.25c-11.08-5.805-24.1566-2.8089-35.86-1.1235l-19.8184,2.9025-3.9012.5618a7.99,7.99,0,0,0-7.9274,1.342,27.0911,27.0911,0,0,0-8.8949,15.6051,113.6769,113.6769,0,0,1-9.363,13.2954,21.377,21.377,0,0,0-3.5579,2.372c-2.4032,2.1535-4.4007,4.7439-6.8038,6.9287a26.2185,26.2185,0,0,1-5.2121,3.5891l-1.779.9051a7.9272,7.9272,0,0,0-4.463.4994,179.5512,179.5512,0,0,1-48.6565,12.484,8.7384,8.7384,0,0,0-3.87,1.342,9.3638,9.3638,0,0,0-4.3382-.4993c-21.5038,2.4656-39.7617,14.5127-57.1145,26.5286a7.8028,7.8028,0,0,0-3.121,4.9936.7215.7215,0,0,1-.25.5306c-.6554,1.7477-2.684,3.121-3.7452,4.65-4.3069,6.8037-10.5178,12.484-12.484,20.7235-1.2172,5.0248-1.7477,10.2368-3.121,15.2617a25.8423,25.8423,0,0,0,2.1223,17.1655c1.9662,4.65,4.4318,9.1133,6.4605,13.7637,3.121,7.0847,5.805,14.3566,9.363,21.3164a9.9563,9.9563,0,0,0,1.6853,5.493c13.8573,21.098,26.1541,44.63,48.5,57.9571a88.2293,88.2293,0,0,0,32.1151,11.6726c8.0834,1.2172,17.5089,1.9974,25.4362-.7491a7.5838,7.5838,0,0,0,4.2134.5306,30.3355,30.3355,0,0,0,14.3566-6.5229,25.56,25.56,0,0,0,7.0847-9.363h0c5.93,2.06,11.6726,4.65,17.4465,7.0534,11.9846,5.0249,24.6871,9.3631,37.7953,7.1471a10.8314,10.8314,0,0,0,2.84-.905,110.4553,110.4553,0,0,0,23.5948.9675c17.1031-.9675,34.3311-2.7465,51.2781-5.056a174.499,174.499,0,0,0,48.9686-12.8274c15.1369-6.8974,28.4324-17.0407,41.3846-27.34,10.8923-8.6764,23.0018-18.726,25.998-32.9266h0a6.3317,6.3317,0,0,1-.2185,1.9974,43.4452,43.4452,0,0,0,6.242-19.0693,177.3619,177.3619,0,0,0-.25-37.4521A162.731,162.731,0,0,0,780.08,475.8517Z"/><path id="path1291" d="M696.6558,354.2885c-4.3694-1.9975-8.6764-4.2134-13.1707-5.8987a36.673,36.673,0,0,0-9.363-1.9039,78.6825,78.6825,0,0,0-12.484-.3121c-8.0522.4994-16.042,1.3733-24.063,2.1847-5.9923.6242-7.1471,2.31-6.0235,8.24a26.5623,26.5623,0,0,1,.2185,3.87,20.8124,20.8124,0,0,0,5.3057.6867c13.67-1.81,27.3088-3.8389,41.01-5.649,4.6815-.6242,9.363-.78,14.1693-1.1548l4.2446.4057A3.8765,3.8765,0,0,0,696.6558,354.2885Z" style="fill:#8b898a"/><path id="path1293" d="M634.8911,341.3363a71.7838,71.7838,0,0,1,25.6858-1.0924c14.5127,2.4344,28.7757,5.3369,42.0088,12.0783,3.9949,2.0287,7.5216,4.4007,8.52,8.9885,2.216,10.2057,8.77,15.6051,18.7261,17.8834a67.4138,67.4138,0,0,1,23.3139,10.7987,14.2325,14.2325,0,0,1,3.6828,5.5866c1.2484,2.528,1.9038,5.3681,3.277,7.8337,2.9338,5.15,8.3956,6.8974,13.3891,9.207,5.5554,2.6216,11.08,5.3993,16.7286,7.8337,5.1809,2.2471,10.5178,4.12,15.6051,6.242a13.5452,13.5452,0,0,1,2.7152,1.779c-18.726-3.9949-36.5157-11.3292-54.43-18.0082a21.4426,21.4426,0,0,1-5.6491-4.4318,2.4032,2.4032,0,0,1-.5617-1.9662,13.67,13.67,0,0,0-7.428-14.8872c-9.8-4.307-19.6936-8.3956-29.6184-12.4841a11.0793,11.0793,0,0,1-6.6789-5.7114,55.3674,55.3674,0,0,0-11.7662-16.3229l4.2446.4057h.9363l-.8427-.593c-4.3694-1.9975-8.6452-4.2446-13.1395-5.8987a38.0711,38.0711,0,0,0-9.363-1.935,78.9563,78.9563,0,0,0-12.484-.3121c-8.021.5305-16.042,1.3732-24.0318,2.1847-4.0885.4369-5.93,1.342-6.242,3.7764a68.2566,68.2566,0,0,1-2.6528-11.08C629.6166,342.335,631.0522,342.0853,634.8911,341.3363Z"/><path id="path1295" d="M762.4778,408.75c5.5554,2.6529,11.08,5.3994,16.7286,7.8649,5.1809,2.2472,10.5178,4.12,15.7611,6.2421a16.9121,16.9121,0,0,1,2.7152,1.7789h0a71.0445,71.0445,0,0,1,9.3631.78c4.2757.9363,8.4267,2.372,12.484,3.6516a47.7235,47.7235,0,0,0,6.6165,2.091,65.0789,65.0789,0,0,0,8.5516.2185l.5617-.3121h0l.9988.1561h0l12.1095-1.1236c8.177-.749,16.5413-.6242,24.0942-4.6191a27.558,27.558,0,0,0,3.4331-7.8649,6.2421,6.2421,0,0,1,2.6216-5.5242h0c-.9675-4.9936-6.242-5.0248-9.02-8.1458-4.12,2.0286-7.9586-.9988-11.9535-.6554-5.2745.4681-10.549,1.1859-15.8235,1.3732a58.0894,58.0894,0,0,1-8.8949-1.0611,13.2328,13.2328,0,0,0-10.0808,1.9038c-.437,1.7477-.9051,3.4955-1.186,4.65l-7.3032-.593c-.1872,0-.3433.3433-.5617.3745-6.71,1.4669-12.6713,5.7115-19.85,5.4618a20.2225,20.2225,0,0,1-4.12-1.1236c-6.8662-1.9662-13.7012-4.0885-20.661-5.8051A22.692,22.692,0,0,0,762.4778,408.75Z" style="fill:#8b898a"/><path id="path1297" d="M834.76,431.3149a65.0789,65.0789,0,0,1-8.5516-.2185,47.7278,47.7278,0,0,1-6.6165-2.091c-4.1821-1.28-8.3331-2.7153-12.484-3.6516a71.0444,71.0444,0,0,0-9.363-.78c8.3019,5.0561,16.3853,10.6427,26.2476,12.172,10.3618,1.5917,20.63,4.1509,31.21,3.121,4.7127-.437,9.363-1.1548,14.0445-1.7166a1.217,1.217,0,0,0,.6243-.1872c4.2758-3.7452,10.112-6.4293,9.8936-13.3267-.156-4.2446-.8115-8.4579-1.2484-12.6713a6.2421,6.2421,0,0,0-2.6216,5.5242,27.558,27.558,0,0,1-3.4331,7.8649,18.9759,18.9759,0,0,1-12.4841,7.0223,93.63,93.63,0,0,1-12.1719.5305,111.7345,111.7345,0,0,1-11.5165-1.81h0l-.9987-.156h0Z"/><path id="path1299" d="M832.8565,403.6a58.0894,58.0894,0,0,0,8.8949,1.0611c5.2745-.1873,10.549-.9051,15.8235-1.3733,3.9949-.3433,7.8338,2.6841,11.9534.6554,2.6529,3.121,8.0522,3.121,9.02,8.1459a53.0618,53.0618,0,0,0-1.03-6.7414c-.1873-.78-1.4669-1.4045-2.372-1.81-8.177-3.8389-16.6662-3.121-25.28-1.7166C844.0921,402.7889,838.3807,403.0386,832.8565,403.6Z"/><path id="path1301" d="M814.1305,409.5615l7.3031.593c.2809-1.1548.7491-2.9026,1.186-4.65A12.2654,12.2654,0,0,0,814.1305,409.5615Z"/><path id="path1303" d="M836.1648,431.1588a111.73,111.73,0,0,0,11.5165,1.81,93.632,93.632,0,0,0,12.1719-.5305,18.9757,18.9757,0,0,0,12.484-7.0223c-7.5529,3.9949-15.9171,3.87-24.0942,4.6191Z"/><path id="path1305" d="M834.76,431.3149l.5618-.3121Z"/><path id="path1307" d="M835.2284,431.0028l.9988.156Z"/><path id="path1309" d="M796.9961,517.798c-3.5267-15.605-6.9911-31.21-14.5439-45.4731a181.0178,181.0178,0,0,0-31.21-40.854c-4.307-4.4942-10.112-7.49-14.95-11.5165-12.484-10.4553-27.9018-15.605-42.6329-21.847a77.1166,77.1166,0,0,0-15.6051-4.65c-13.4515-2.4032-27.0279-4.2446-40.573-6.5229a90.3174,90.3174,0,0,1-10.3306-3.121c4.9937-10.2057,4.8064-10.2057,5.68-25.7483A35.6428,35.6428,0,0,0,627.9,337.5286c-9.7375-15.9483-22.8458-28.089-41.7279-33.3947a60.5157,60.5157,0,0,0-24.1253-2.4032,39.4835,39.4835,0,0,0-11.735,3.121,88.5136,88.5136,0,0,0-11.4229,7.7089,37.4523,37.4523,0,0,0-15.605-12.6713c-3.7765-1.5917-7.5217-3.121-11.3917-4.6191a114.7617,114.7617,0,0,0-20.9107-6.71,178.64,178.64,0,0,0-27.7458-.9051,43.35,43.35,0,0,0-13.42,2.2159,80.0836,80.0836,0,0,0-17.0408,8.0834,78.4006,78.4006,0,0,0-11.891,11.298c-13.0458,13.2643-21.847,29.3687-29.7744,45.91a18.7265,18.7265,0,0,0-1.7166,7.272c-.2184,4.6815,0,9.363,0,14.0757,0,11.142-.25,22.3464,5.9612,32.3961l-5.15.6554a208.4858,208.4858,0,0,1-22.3152,2.7777c-12.9522.2809-14.8872,1.0923-20.4738-9.8312-.4994-.9363-.749-2.06-1.3108-3.121-1.4045-2.3408-.749-3.8389,1.3732-5.43a34.492,34.492,0,0,0,4.744-4.8064l-.9988-1.1548-7.1159,3.2771a22.0676,22.0676,0,0,1,.9364-7.6777c.9987-1.8414,3.5267-2.84,5.3057-4.1509a5.056,5.056,0,0,0-6.5542,2.8089,64.1706,64.1706,0,0,0-2.7464,8.4891c-.2809.9363-.3433,2.4344-.9675,2.7465-8.0834,3.9949-15.6051,9.363-24.9681,10.549-11.1732,1.3732-17.1655-2.84-18.726-13.9509a22.9472,22.9472,0,0,0-.3746-2.4968,53.0572,53.0572,0,0,1,8.458-39.1687,92.2573,92.2573,0,0,1,16.8534-17.5088,32.9581,32.9581,0,0,1,25.9044-7.99c.2184-.2808.4369-.5305.6241-.8114a19.6618,19.6618,0,0,0-13.7636-.4994c-9.5815,2.9025-16.3853,9.6439-23.22,16.3853a61.4525,61.4525,0,0,0-19.9744,45.5979,23.5325,23.5325,0,0,0,9.7375,20.7547,24.1565,24.1565,0,0,0,28.4636,1.342c4.12-2.4344,8.3643-4.5879,12.484-6.8662,6.7414,16.3541,17.228,20.38,32.677,18.7261,7.49-.8427,14.8872-2.3408,22.4088-3.62l-.3121-.3433.3121.3433,1.5293-.25a12.0171,12.0171,0,0,1,1.3108,3.714,68.6581,68.6581,0,0,1,6.242,10.83,14.3567,14.3567,0,0,1,3.121,3.8076,29.6483,29.6483,0,0,0,2.7465,3.121A34.9866,34.9866,0,0,0,425.94,447.825c4.0885,1.8414,4.0261,6.242.3746,8.8013-1.0612.78-2.4032,1.2171-3.3707,2.091-8.8949,7.8962-18.1019,15.6051-26.4038,23.9069a86.95,86.95,0,0,0-14.7623,19.1942,70.7842,70.7842,0,0,0-8.021,35.1425,27.1841,27.1841,0,0,0,3.8388,15.98,133.4678,133.4678,0,0,1,8.0834,13.2954c3.9637,7.4592,6.6478,15.8236,11.579,22.5649,11.1732,15.3554,22.7833,30.461,35.3922,44.6616,6.46,7.3032,15.3553,12.484,23.3139,18.4139a80.3324,80.3324,0,0,0,12.8273,8.1771c13.7324,6.6165,27.777,5.9923,42.2584,2.091,10.4866-2.84,18.5076-7.8961,23.0955-17.977,1.342-3.121,4.0261-3.4018,7.1783-2.1222,8.3019,3.3707,16.4789,7.2095,24.9681,9.7375,15.1992,4.4943,30.96,4.3382,46.8151,4.5879,24.6247.4369,48.438-4.8688,72.5009-8.4892a16.973,16.973,0,0,0,2.4344-.78c6.242-1.81,12.484-3.558,18.4452-5.4306a84.76,84.76,0,0,0,13.4515-4.4006,329.323,329.323,0,0,0,41.7278-25.7171A75.0916,75.0916,0,0,0,779.05,592.2338a98.2183,98.2183,0,0,0,16.5413-33.582c3.121-13.5451.7491-26.9967,1.5917-40.5731A1.4083,1.4083,0,0,0,796.9961,517.798ZM422.9747,435.6531c-9.363-5.6178-12.0471-15.605-16.2293-24.2814a102.4621,102.4621,0,0,1-8.0209-23.626c-2.4032-11.8287.3433-23.5948,2.7777-35.2362a36.6716,36.6716,0,0,1,6.835-13.7324c.6242-.9051,2.8089-2.1223,0-3.34a3.6212,3.6212,0,0,1,.4993-1.7478,255.4858,255.4858,0,0,1,18.4764-24.219c4.2134-4.4318,10.7363-6.7414,16.2292-9.9872.5306-.3121,1.1548-.4057,1.6854-.6554,16.3853-7.6153,33.3011-6.5229,50.56-3.8077,13.5451,2.1536,25.1241,8.458,36.703,15.0121a21.0976,21.0976,0,0,1,5.1184,5.493c6.4917,7.9273,12.921,15.9483,19.8185,24.4686a12.486,12.486,0,0,0-.9988-3.5267q-5.2745-7.1159-10.83-14.0445c-5.15-6.242-6.4917-8.3019,1.7478-11.4229a53.4622,53.4622,0,0,1,38.1075-1.0611c1.935.6866,3.9949.9987,5.9611,1.5292a48.3134,48.3134,0,0,1,30.9292,23.9382,49.9356,49.9356,0,0,1,6.242,27.2463c-.1872,2.528.2185,5.1185,0,7.6465-.5306,4.5879-1.342,9.1445-2.06,13.9509-20.63-2.2471-40.1361-.4682-59.9233,1.779l.593-3.121a12.89,12.89,0,0,0-1.1235-10.0809c-1.9663-3.121-1.2172-8.021-1.9663-12.0471a28.4933,28.4933,0,0,0-2.1535-5.43l-.8427.4057c.6866,5.3681,1.56,10.7363,1.935,16.1356a10.2368,10.2368,0,0,1-3.121,9.7375c-1.3732,1.1236-.9675,4.2134-1.7477,6.2421a134.8806,134.8806,0,0,1-6.9911,16.791,99.8793,99.8793,0,0,1-9.363,12.7649c-2.31,3.121-4.8688,5.7426-7.1784,8.7076a36.2665,36.2665,0,0,1-17.0094,11.0172c-10.6114,4.0261-21.2853,7.8649-32.1151,11.2356a53.557,53.557,0,0,1-14.3254,1.9038,98.8142,98.8142,0,0,1-17.7274-.749,68.6629,68.6629,0,0,1-17.5712-4.7439C431.2141,442.6754,427.5,438.4,422.9747,435.6531Zm368.6221,83.5493a177.3687,177.3687,0,0,1,.25,37.4521,43.4452,43.4452,0,0,1-6.242,19.0694c-.6555,1.2172-1.3109,2.4344-1.9351,3.6827l-.53.8427a148.7148,148.7148,0,0,1-13.8261,18.5076,161.6353,161.6353,0,0,1-20.2865,15.605,116.4134,116.4134,0,0,1-16.51,10.549,245.9735,245.9735,0,0,1-27.3088,11.4229A207.284,207.284,0,0,1,681.675,642.17a215.647,215.647,0,0,1-23.5012,4.2446c-15.605,1.56-31.4909,2.5592-47.2832,3.5891a126.6543,126.6543,0,0,1-13.3267-.1561,125.1509,125.1509,0,0,1-36.235-4.1509,27.108,27.108,0,0,1-3.9324-1.6853h0l-.9675-.4994c-6.7726-2.7776-13.5764-5.4929-20.3178-8.3955h0c-3.4643,7.7714-10.4241,10.83-17.4776,13.2019a10.4239,10.4239,0,0,1-6.4605-.7491,22.8766,22.8766,0,0,1-13.2331,4.65,88.73,88.73,0,0,1-41.4782-11.6413c-7.2095-4.1509-13.0146-10.7675-19.4439-16.26l-.4369-.6554h.8426l5.3682,1.4669.4057-.9363a11.3905,11.3905,0,0,0-2.8089-1.56,24.0632,24.0632,0,0,1-13.7012-8.7076,144.9423,144.9423,0,0,1-18.0707-24.5311c-7.1783-9.9248-10.9547-21.4726-15.8547-32.5209-2.0287-4.65-4.4943-9.1134-6.4605-13.7637a25.8423,25.8423,0,0,1-2.1223-17.1655c1.3421-5.0248,1.8726-10.2369,3.121-15.2617,1.9975-8.1771,8.2083-13.92,12.4841-20.7235,1.0611-1.6853,3.121-2.9025,3.7452-4.65,1.2484-3.121,4.4318-3.4019,6.5541-5.2121h0l2.684-3.9013c8.1147-4.307,16.1981-8.6452,24.3439-12.89a50.4348,50.4348,0,0,1,10.0184-4.7127,42.0711,42.0711,0,0,1,14.2318-1.9663c12.484,1.1548,24.063-1.9038,35.86-5.0248a114.2979,114.2979,0,0,0,21.691-8.8636c2.7465-1.3421,5.5242-2.5593,8.2083-4.0261a26.222,26.222,0,0,0,5.1184-3.4331c2.4032-2.1847,4.4007-4.7752,6.8038-6.9287a37.9584,37.9584,0,0,1,5.337-3.4331c4.8687-8.3643,9.8624-16.6973,14.5439-25.1865,1.7165-3.121,4.5567-1.9038,6.7414-2.2471,10.6114-1.56,21.3164-2.9338,32.0215-3.7452,7.8649-.6242,15.8235-.2809,23.7508-.3433a326.6468,326.6468,0,0,1,56.6463,6.242,143.0362,143.0362,0,0,1,51.3093,20.3489,110.89,110.89,0,0,1,30.9917,26.6222c7.0534,9.363,14.263,18.4452,18.726,29.3375A162.73,162.73,0,0,1,791.5968,519.2024Z"/><path id="path1311" d="M622.3446,335.4064A48.3131,48.3131,0,0,0,591.54,311.5931c-1.9663-.5306-4.0261-.8427-5.9612-1.5293a53.4628,53.4628,0,0,0-38.1075,1.0611c-8.2394,3.121-6.8974,5.0249-1.7477,11.4229q5.5242,6.9287,10.83,14.0446a12.4849,12.4849,0,0,1,.9987,3.5267c-6.8974-8.52-13.3267-16.5414-19.8184-24.4687a21.0976,21.0976,0,0,0-5.1184-5.493c-11.579-6.5541-23.1579-12.8586-36.7031-15.012-17.2591-2.7153-34.175-3.8077-50.56,3.8076-.5305.25-1.1547.3433-1.6853.6554-5.493,3.121-12.0159,5.5554-16.2292,9.9872a255.4819,255.4819,0,0,0-18.4764,24.219,3.62,3.62,0,0,0-.5618,1.5918c2.684,1.2172.4994,2.4343,0,3.3394a36.672,36.672,0,0,0-6.835,13.7325c-2.4344,11.6413-5.1809,23.4075-2.7777,35.2361a102.4568,102.4568,0,0,0,8.021,23.6261c4.1821,8.77,7.0222,18.726,16.2292,24.2814,4.5254,2.7465,8.2394,7.0223,12.9834,9.1445a68.659,68.659,0,0,0,17.5712,4.744,98.8223,98.8223,0,0,0,17.7273.749,53.5559,53.5559,0,0,0,14.3254-1.9038c10.83-3.3707,21.5038-7.2095,32.1152-11.2356a36.2674,36.2674,0,0,0,16.7286-11.2044c2.3095-3.1211,4.8687-5.7427,7.1783-8.7077a99.8627,99.8627,0,0,0,9.363-12.7649,134.8439,134.8439,0,0,0,6.9911-16.791c.78-2.0287.3745-5.1184,1.7478-6.242a10.2369,10.2369,0,0,0,3.121-9.7376c-.3745-5.3993-1.2484-10.7674-1.935-16.1356l.8426-.4057a28.4942,28.4942,0,0,1,2.1535,5.4306c.7491,4.0261,0,8.8636,1.9663,12.0471A12.89,12.89,0,0,1,567.04,382.69l-.593,3.121c19.7871-2.2471,39.2934-4.0261,59.9233-1.7789.7178-4.8064,1.5293-9.3631,2.06-13.951.25-2.528-.1561-5.1184,0-7.6464A49.9362,49.9362,0,0,0,622.3446,335.4064Z" style="fill:#fff"/><path id="path1313" d="M519.8508,442.769a11.0482,11.0482,0,0,0,9.8311,1.9038,6.7728,6.7728,0,0,1,4.8688.5306c.749.4994,0,2.84.3433,4.307a11.08,11.08,0,0,0,.9987,3.7764,4.2133,4.2133,0,0,1-1.935,6.242c-4.3694,2.5592-8.6139,5.3681-13.2018,7.5216-10.6739,4.9936-21.41,9.8624-32.3025,14.45a111.2031,111.2031,0,0,1-33.0826,7.428c-5.0561.4369-10.0809,1.186-15.0745,1.935-.9987,0-1.8414,1.186-2.84,1.5293a39.48,39.48,0,0,1-11.579,3.4019c-2.4968,0-5.056-3.121-7.4592-4.8376a14.8254,14.8254,0,0,1-3.3082-3.5267c-1.5293-2.372-2.7777-4.9-4.151-7.3656h0c.9051-1.28,1.779-2.59,2.6841-3.9013,8.1146-4.307,16.198-8.6452,24.3439-12.89a51.2737,51.2737,0,0,1,10.0184-4.7127,42.9744,42.9744,0,0,1,14.2318-1.9663c12.484,1.1548,24.0941-1.9038,35.86-5.0248A114.2944,114.2944,0,0,0,519.8508,442.769Z" style="fill:#dabd8f"/><path id="path1315" d="M622.4694,393.27c-2.8713,1.0924-5.7426,2.1847-8.6139,3.34a30.3454,30.3454,0,0,0-2.7465,1.5917,4.5256,4.5256,0,0,1,1.6853,6.679,7.4277,7.4277,0,0,0,.9675,5.0872,2.8714,2.8714,0,0,1-1.8726,4.5567c-7.5841,2.684-15.0745,5.649-22.8458,7.8025a263.1539,263.1539,0,0,1-27.3088,6.0548c-5.6179.9363-11.7662,1.5917-16.3229-3.5892,4.8688-8.3643,9.8936-16.6974,14.5439-25.1865,1.7166-3.121,4.5567-1.9038,6.7414-2.2472,10.6426-1.56,21.3165-2.9337,32.0215-3.7452C606.6147,392.9889,614.5421,393.3322,622.4694,393.27Z" style="fill:#dabd8f"/><path id="path1317" d="M413.7365,476.3822c-.9051,1.3108-1.779,2.6217-2.6841,3.9013Z"/><path id="path1319" d="M355.53,478.9727l-.6242.8114.1873-1.1235Z" style="fill:#8b898a"/><path id="path1321" d="M778.551,558.7144a129.4629,129.4629,0,0,0-14.0445,4.5879c-2.965,1.1236-5.649,2.59-8.9261.9051a4.8688,4.8688,0,0,0-3.4331.1872,42.1927,42.1927,0,0,1-10.1745,3.4643c-6.5853.3433-11.9223,3.4643-17.6649,5.93a150.6821,150.6821,0,0,1-18.1019,7.3656c-13.2954,3.6828-26.06,8.9885-40.0112,10.6114-12.0159,1.4044-23.72,5.3057-35.7044,6.835a308.2608,308.2608,0,0,1-40.8227,2.7777,80.334,80.334,0,0,1-27.6834-4.463c-9.8935-3.8076-18.8821-10.2057-27.8706-16.0732-4.8063-3.121-8.4579-8.0522-13.2331-11.2044a98.8425,98.8425,0,0,1-22.19-18.2266c-1.623-2.372-3.3083-4.7752-5.056-7.1159a28.7141,28.7141,0,0,0-5.8363-7.3968,127.9584,127.9584,0,0,0-13.9821-14.45A37.2645,37.2645,0,0,0,447.1,512.6172a4.7774,4.7774,0,0,1-1.1548-.9675c-.2809-.3434-1.779.2808-2.6528.6242s-1.4045,1.2171-1.779,1.0611a5.8363,5.8363,0,0,0-7.1159,1.6541A26.1242,26.1242,0,0,0,429.31,517.08c-10.4866,5.8363-15.98,17.3216-19.3191,28.4012a68.1938,68.1938,0,0,0-1.4356,37.92,55.2646,55.2646,0,0,0,1.8726,5.5554,6.5858,6.5858,0,0,1-.9363.4993,144.9331,144.9331,0,0,0,18.0706,24.5312c.749.8738,1.4981,1.6853,2.2783,2.4343a51.7662,51.7662,0,0,0,3.87,5.4306,42.6646,42.6646,0,0,0,14.1069,11.4853,57.42,57.42,0,0,0,9.55,7.2407,88.9784,88.9784,0,0,0,41.5406,11.61,17.9463,17.9463,0,0,0,7.428-1.4668c12.2343-1.0924,24.0005-4.8064,30.8355-15.3242,6.2421,2.7153,12.8274,5.2745,19.2567,7.9273l.9363.4994h.8426a59.896,59.896,0,0,0,9.363,4.2446,53.9,53.9,0,0,0,17.6961,2.4032,90.1713,90.1713,0,0,0,11.579-1.03l.6866.1873c4.463,0,8.9261.4681,13.3579.1561,15.605-1.03,31.5534-2.0287,47.2832-3.5892a215.1042,215.1042,0,0,0,23.47-4.2446,199.7164,199.7164,0,0,0,23.5636-5.8362,245.5417,245.5417,0,0,0,27.2777-11.4229,118.6087,118.6087,0,0,0,16.5413-10.549,163.6169,163.6169,0,0,0,20.2554-15.7611,148.9074,148.9074,0,0,0,13.8572-18.5076l.4994-.8427,1.935-3.6827c.3433-3.121.7178-6.4293.9675-9.6439a6.5854,6.5854,0,0,0-7.99-6.9911Z" style="fill:#dabd8f"/><path id="path1323" d="M482.0241,375.1056c.6242-3.9949.9988-6.9287,1.5917-9.8312a2.9338,2.9338,0,0,1,4.9-1.7166c4.151,4.2446,8.8013,8.5828,9.1445,15.0121a8.1771,8.1771,0,0,1-2.7152,6.5541,6.2421,6.2421,0,0,1-8.3019-1.6229A63.2362,63.2362,0,0,1,482.0241,375.1056Z"/><path id="path1325" d="M571.5658,359.7814a56.1747,56.1747,0,0,1-3.121,7.3032c-.3433.5617-2.4968.593-3.4331,0a13.951,13.951,0,0,1-6.8038-13.9821,4.2757,4.2757,0,0,1,2.0911-3.121,3.9946,3.9946,0,0,1,3.4331,1.0923C566.4162,353.7891,568.8505,356.7228,571.5658,359.7814Z"/><path id="path1327" d="M608.6121,276.8563c5.6491-3.5268,8.1459-3.3707,11.6414,1.935,4.7439,7.2407,9.7375,14.3878,12.0159,22.9706.7178,2.6529,1.9662,5.15,2.84,7.7713,2.9338,8.8637,2.0911,13.1707-6.5229,21.16a41.8444,41.8444,0,0,1-1.4981-4.2758c-1.1547-5.3057-2.2159-10.6114-3.121-15.9171-1.5917-8.1458-6.8037-14.0757-12.1719-19.8184a8.7388,8.7388,0,0,1-2.3407-10.7362C609.58,279.2282,608.9243,278.0735,608.6121,276.8563Z"/><path id="path1329" d="M375.8787,330.6c2.372-8.021,6.6477-16.9158,6.242-17.1655a121.0153,121.0153,0,0,1,7.74-14.6376c5.5242-9.363,11.5789-18.1642,17.29-27.3088a61.2052,61.2052,0,0,1,7.2719-6.991c1.28-1.779-1.935-9.1446-3.121-10.0809-6.7413-6.0859-8.4579-5.8363-14.2942.4682-12.8585,13.7948-17.54,31.9279-22.4712,49.9361-2.06,7.428-3.4956,19.6623-.5618,28.4948"/><path id="path1331" d="M529.4322,273.7353a34.3286,34.3286,0,0,0-5.3993-5.8675c-11.891-10.2057-26.747-11.8911-41.3845-13.8573-14.1694-1.8726-28.0891.9987-41.6343,4.5255-6.242,1.6541-12.7337,3.5891-19.1005,5.3993-.3433-.1873-18.2891,8.9573-20.0993,9.956-9.0509,4.9312-16.9471,12.0471-25.249,18.32a81.1467,81.1467,0,0,0-18.1018,17.3528c-2.8089,3.9013-6.242,7.3968-9.363,11.0484-.593-.4369-1.6542-.25-1.2172-.1873-5.493,9.3631-10.9548,18.414-16.3541,27.5585-1.0924,1.9039-2.6841,3.9013-1.2484,6.2421,1.28-2.7153,2.4031-5.3058,3.7452-7.7713s3.3707-5.0873,4.5879-7.8338c5.8675-13.3891,16.3853-23.3451,26.3413-33.1451s22.8457-17.8209,34.55-26.4349a35.5151,35.5151,0,0,1,6.0548-3.121s15.4178-7.3344,18.1018-7.7089A82.7529,82.7529,0,0,0,431.87,265.34c22.2839-5.9924,44.724-10.05,67.7882-4.7127a88.0945,88.0945,0,0,1,13.9821,3.8388c7.9274,3.121,14.0446,8.4579,14.6063,18.32a6.2421,6.2421,0,0,0,1.45-8.7077Q529.57,273.9024,529.4322,273.7353Z"/><path id="path1333" d="M530.587,633.65a42.9556,42.9556,0,0,1-6.8662-3.121c-5.8675-4.2446-11.5477-8.77-17.3216-13.1707-5.2745-3.6516-10.7051-6.8662-13.4516-13.42s-6.6165-12.4841-9.956-18.7261a9.1826,9.1826,0,0,1-.4994-1.81,69.2862,69.2862,0,0,1-9.363-38.1387c.25-8.9573,5.1185-15.3241,12.0471-20.38,2.8089-.9051,5.5866-1.8414,8.4267-2.6841s4.9312-1.28,7.3344-1.9038c-1.0924-7.3032-2.8713-8.4892-8.8636-6.4917-3.558,1.186-7.0535,2.4968-10.83,3.8076-1.03-1.9974-2.2472-1.7478-4.151-.2185-3.121,2.528-6.6165,4.5255-9.956,6.7414l-15.0432,13.514-9.363,8.5828c10.4553-1.2172,14.7623,1.4044,17.9145,10.705,1.186,3.5268,1.6229,7.3031,2.5905,10.9235a20.0359,20.0359,0,0,0,1.8726,4.3694c5.0872,9.6752,9.7063,19.6311,15.605,28.8381a76.62,76.62,0,0,0,18.1955,21.4726c3.121,2.2783,4.0573,7.3344,5.8362,11.2044,1.1548,2.4968,1.7478,5.2433,3.121,7.6777s.8427,3.121-1.6853,3.9637l3.87,3.8388h0a10.7045,10.7045,0,0,0,6.5853,1.3732c7.49-1.7477,14.9809-4.2757,19.2566-11.9846v-.1561l-1.935-1.03C532.3348,636.5523,531.5233,634.8045,530.587,633.65Z"/></svg>