<svg id="图层_1" data-name="图层 1" xmlns="http://www.w3.org/2000/svg" viewBox="0 0 1000 1000"><title>Quqi-Drive</title><rect width="1000" height="1000" style="fill:#ffd01e;isolation:isolate"/><path d="M601.8147,233.3793c-78.2334-46.8234-162.402-18.0285-168.5759-15.804-17.78,6.406-60.9807,22.688-90.61,68.484-27.1238,41.9241-27.1317,84.2514-26.34,100.092A200.06,200.06,0,0,0,255.18,394.58c-13.61,4.1095-72.562,21.91-106.4136,76.9128-34.3108,55.7488-28.9544,127.1622,0,179.1119,42.2348,75.7772,135.5114,111.6346,212.8272,90.61,39.2093-10.6624,66.1123-33.72,80.9663-49.1508l34.7061,26.153.2546-112.08L369.8527,637.2745l33.0058,24.8717a116.3983,116.3983,0,0,1-39.1573,26.3882c-55.8056,22.4556-134.3377.196-169.63-59.0016-21.8905-36.7184-28.8-90.4238-3.1608-131.7,23.6337-38.0478,65.163-49.8215,86.3952-55.8408a187.2173,187.2173,0,0,1,82.1808-4.2144C347.7736,376.3,368.4343,315.5884,413.22,282.8985c39.7864-29.0406,85.3989-26.322,96.9312-25.2864,4.7444.426,51.3008,5.21,86.3951,37.93,11.91,11.1036,21.2611,19.8222,28.4472,34.7688,6.74,14.0179,6.4307,22.8147,15.804,29.5008,8.5915,6.1283,22.2289,8.28,30.5544,2.1072,7.2315-5.362,8.1028-15.2606,8.4288-18.9648C682.0641,317.0166,654.281,264.7808,601.8147,233.3793Z" style="fill:#fff"/><path d="M403.738,432.51c-12.0845-15.1329-5.5137-65.13,26.34-100.092,22.1461-24.3073,52.1378-36.545,77.9664-35.8224,8.74.2445,22.13.8139,28.4472,10.536,4.8869,7.5213,4.8556,19.4669-1.0536,25.2864-6.7575,6.6549-15.464-.3515-34.7688,3.1608-15.772,2.8695-26.767,10.6038-32.6616,14.75-8.1035,5.7-17.9682,12.6395-24.2328,25.2864-5.3907,10.8826-6.6078,22.9474-7.3752,30.5544-1.2771,12.6593.2685,17.728-4.2144,24.2328-3.36,4.8752-9.8558,10.1938-16.8576,9.4824C409.1241,439.2545,405.0456,434.1471,403.738,432.51Z" style="fill:#fff"/><path d="M495.4012,568.424c1.444,5.066,4.41,15.4714,13.6968,20.0184,5.462,2.6744,12.9132,3.2256,18.9648,0,3.2464-1.73,7.329-5.2082,11.59-17.9112a99.9907,99.9907,0,0,0,5.268-30.5544C544.49,512.3241,603.8587,427.92,690.3171,431.4561c6.11.25,72.5211,4.0993,108.5208,61.1088,31.4731,49.841,23.14,114.0865-9.4824,154.8791-2.5858,3.2335-33.2818,40.563-80.0736,47.412-.5538.0811-.18.0218-44.2512,0H557.5636c-9.9591-.4757-12.9889-1.08-18.9648,0-6.1811,1.1175-19.65,3.5527-25.2864,14.75-4.2192,8.3826-1.6923,16.9946-1.0536,18.9648.5086,1.5688,2.9152,8.4742,11.59,14.75,16.0161,11.5882,38.2656,10.0817,48.4655,9.4824,36.8142-2.1629,73.788.6122,110.628-1.0536,29.9049-1.3522,44.8663-2.03,45.3048-2.1072,62.1939-10.9634,101.5626-58.2742,106.4136-64.27,50.921-62.9333,40.0159-136.9711,37.93-149.6112-2.3963-14.518-11.8412-66.89-57.948-108.5207-52.4972-47.4-116.14-48.024-141.1824-46.3584-83.6029,5.56-141.96,63.5647-165.4151,108.5208C489.7983,524.3763,491.309,554.0677,495.4012,568.424Z" style="fill:#fff"/><path d="M600.7611,576.8528c-1.7439,4.7021-3.5116,9.4684-1.0536,13.6968,2.2349,3.8446,7.4233,6.316,11.59,5.268,4.318-1.0861,4.5475-5.2,10.536-12.6432,2.3661-2.9407,7.4437-9.2512,14.75-12.6432,8.2218-3.8166,16.2946-2.5585,18.9648-2.1072,18.7349,3.1665,19.3943,19.89,41.09,30.5544,4.8788,2.3982,18.0509,8.8728,33.7152,5.268,18.0755-4.16,27.2578-18.93,30.5544-24.2328,3.1932-5.1364,9.0256-14.5183,5.268-21.072a10.9634,10.9634,0,0,0-8.4288-5.268c-3.2857-.216-6.1348,1.4005-10.536,5.268-11.3147,9.9431-11.437,15.9148-17.9112,18.9648-6.2334,2.9367-12.9785.6319-17.9112-1.0536-14.3706-4.91-14.3009-14.6853-31.608-25.2864-4.79-2.9341-11.915-7.1957-22.1256-8.4288a50.3538,50.3538,0,0,0-21.072,2.1072,58.062,58.062,0,0,0-25.2864,15.804C604.2507,568.2461,601.7006,574.32,600.7611,576.8528Z" style="fill:#fff"/></svg>