<?xml version="1.0" encoding="utf-8"?>
<!-- Generator: Adobe Illustrator 23.0.1, SVG Export Plug-In . SVG Version: 6.00 Build 0)  -->
<svg version="1.1" id="图层_1" xmlns="http://www.w3.org/2000/svg" xmlns:xlink="http://www.w3.org/1999/xlink" x="0px" y="0px"
	 viewBox="0 0 1000 1000" style="enable-background:new 0 0 1000 1000;" xml:space="preserve">
<style type="text/css">
	.st0{fill:none;}
	.st1{opacity:0.5;fill-rule:evenodd;clip-rule:evenodd;fill:#FF9F8D;enable-background:new    ;}
	.st2{opacity:0.8;fill-rule:evenodd;clip-rule:evenodd;fill:#FF8770;enable-background:new    ;}
	.st3{fill-rule:evenodd;clip-rule:evenodd;fill:#FF431F;}
	.st4{fill-rule:evenodd;clip-rule:evenodd;fill:#FFFFFF;}
</style>
<title>SwissTransfer</title>
<rect class="st0" width="1000" height="1000"/>
<g id="Logo-Swisstransfer">
	<path id="Rectangle-Copy-15" class="st1" d="M387.3,83.3l458.3,141c17.5,5.4,29.4,21.5,29.4,39.8v454.5c0,23-18.7,41.7-41.7,41.7
		c-4.2,0-8.3-0.6-12.3-1.8l-458.3-141c-17.5-5.4-29.4-21.5-29.4-39.8V123.1c0-23,18.7-41.7,41.7-41.7
		C379.2,81.4,383.3,82,387.3,83.3L387.3,83.3z"/>
	<path id="Rectangle-Copy-10" class="st2" d="M283.1,162.4l458.3,141c17.5,5.4,29.4,21.5,29.4,39.8v454.5c0,23-18.7,41.7-41.7,41.7
		c-4.2,0-8.3-0.6-12.3-1.8l-458.3-141c-17.5-5.4-29.4-21.5-29.4-39.8V202.2c0-23,18.7-41.7,41.7-41.7
		C275,160.6,279.1,161.2,283.1,162.4z"/>
	<path id="Rectangle" class="st3" d="M178.9,241.6l458.3,141c17.5,5.4,29.4,21.5,29.4,39.8v454.5c0,23-18.7,41.7-41.7,41.7
		c-4.2,0-8.3-0.6-12.3-1.8l-458.3-141c-17.5-5.4-29.4-21.5-29.4-39.8V281.4c0-23,18.7-41.7,41.7-41.7
		C170.8,239.7,175,240.4,178.9,241.6L178.9,241.6z"/>
	<path id="Combined-Shape" class="st4" d="M455,437.5c3.9,3.4,7.1,7.5,9.2,12.2L546.3,744c6.1,13.2,2,26.3-9.2,29.1
		c-3.7,0.8-7.5,0.7-11.1-0.5L451.4,750l3.5-103.2L387.6,732l-138.4-43.3c-12.8-3.9-23.2-17.5-23.2-30.5c-0.1-3.4,0.8-6.7,2.4-9.7
		l46.7-115.8c5.7-9.9,19.6-10.5,31.1-1.2c4.6,3.7,8.2,8.4,10.5,13.8l25.5,43.3l81.4-151.3C429.7,427.8,443.7,427.9,455,437.5z"/>
</g>
</svg>
