<svg id="图层_1" data-name="图层 1" xmlns="http://www.w3.org/2000/svg" viewBox="0 0 1000 1000"><title>Temp-mail</title><circle cx="500" cy="500" r="500" style="fill:none"/><path d="M500,100c-220.91392,0-400,179.08608-400,400S279.08608,900,500,900,900,720.91387,900,500,720.91392,100,500,100Zm0,780c-209.86821,0-380-170.13179-380-380S290.13179,120,500,120c149.89321,0,279.51025,86.79072,341.35479,212.85713l.00161.00332q1.0919,2.22589,2.15542,4.46807l.02719.05737q1.06217,2.23989,2.096,4.49575l.00683.01484A377.35082,377.35082,0,0,1,861.957,383.98267c.02832.08842.05615.17705.08443.26552q.71065,2.22466,1.39462,4.461.07134.2332.142.46675.65478,2.15082,1.28481,4.3124.08094.27759.16143.55537.61919,2.13707,1.214,4.28443.07815.28212.15645.5642.6008,2.182,1.17592,4.37447c.04029.15356.0814.30688.12154.46049q.60191,2.30508,1.17568,4.62139c.01821.07349.03706.14668.05523.22022q3.04548,12.32944,5.27944,24.96484c.01465.08291.02827.16611.04287.249q.41024,2.33424.79194,4.67828c.04048.24863.07891.498.1189.74677q.3375,2.09883.65308,4.20493c.05078.3399.09951.68042.14936,1.02061q.29055,1.98267.56143,3.97163.07866.57912.15473,1.159.2562,1.93191.49327,3.86973.07478.61209.1478,1.22461.22895,1.925.438,3.85606c.04423.40747.089.81469.132,1.22251q.207,1.96464.39253,3.93554c.03589.37813.07324.75586.108,1.13433q.19005,2.0702.35639,4.14722c.025.30947.05225.61826.07652.92792q.1812,2.3111.334,4.63018c.00991.14946.02153.29839.03125.4479q.50918,7.82739.70088,15.73862l0,.00147q.11139,4.63682.11445,9.3,0,7.9801-.33149,15.88h0l-.0002.0042q-.1029,2.503-.23843,4.99736c-.00385.0707-.00825.14121-.01211.21192q-.13095,2.39311-.29116,4.77832c-.00791.11811-.0166.236-.02466.354q-.15791,2.31679-.34311,4.626c-.01192.14849-.02461.29678-.03672.44522q-.18472,2.26583-.39551,4.52427c-.01562.16694-.03183.33374-.04765.50063q-.21175,2.2328-.44888,4.458-.02812.26389-.05694.52749-.23971,2.21748-.50468,4.42734-.0312.26008-.0628.52017-.26923,2.2188-.564,4.42964-.03237.24316-.06494.48623-.3,2.22891-.62593,4.44951c-.02187.14907-.04341.29829-.06548.44731q-.33354,2.25536-.69365,4.502c-.019.11894-.0377.23794-.05684.35683q-.37074,2.30018-.769,4.591c-.01441.083-.02837.16616-.04287.24912q-.41331,2.36851-.85557,4.72686l-.01514.08183a377.1458,377.1458,0,0,1-24.06206,79.0753l-.01484.03452q-.939,2.18862-1.90444,4.363l-.02993.06723q-.96219,2.166-1.95049,4.31758l-.02813.06118q-.99213,2.15882-2.01025,4.30318l-.01846.03891C782.44927,791.22847,651.59409,880,500,880Z" transform="translate(0)" style="fill:#39b54a"/><path d="M878.32661,535.82139c-.01557.16694-.03183.33374-.04765.50063C878.29478,536.15513,878.311,535.98833,878.32661,535.82139Z" transform="translate(0)" style="fill:#39b54a"/><path d="M878.75884,530.8519c-.01192.14849-.02461.29673-.03672.44522C878.73423,531.14868,878.74692,531.00039,878.75884,530.8519Z" transform="translate(0)" style="fill:#39b54a"/><path d="M879.12661,525.87183c-.008.11806-.0166.236-.02466.354C879.11,526.10781,879.1187,525.98994,879.12661,525.87183Z" transform="translate(0)" style="fill:#39b54a"/><polygon points="879.669 515.88 879.669 515.88 879.668 515.884 879.669 515.88" style="fill:#39b54a"/><path d="M843.43369,662.83618l.01846-.03891Z" transform="translate(0)" style="fill:#39b54a"/><path d="M879.42988,520.88159c-.00381.0707-.00825.14126-.01211.21192C879.42163,521.0228,879.426,520.95229,879.42988,520.88159Z" transform="translate(0)" style="fill:#39b54a"/><path d="M845.49053,658.43291l-.02813.06118Z" transform="translate(0)" style="fill:#39b54a"/><path d="M875.1917,560.56968c-.01909.11889-.0377.238-.05684.35683C875.154,560.80762,875.17266,560.68862,875.1917,560.56968Z" transform="translate(0)" style="fill:#39b54a"/><path d="M877.83008,540.78q-.0282.26389-.05694.52749Q877.80172,541.04378,877.83008,540.78Z" transform="translate(0)" style="fill:#39b54a"/><path d="M849.39023,649.65059l-.01484.03452Z" transform="translate(0)" style="fill:#39b54a"/><path d="M874.36587,565.51748c-.01445.083-.02842.16616-.04287.24912C874.3375,565.68364,874.35146,565.60049,874.36587,565.51748Z" transform="translate(0)" style="fill:#39b54a"/><path d="M847.471,654.0481l-.02993.06723Z" transform="translate(0)" style="fill:#39b54a"/><path d="M873.46743,570.49346l-.01514.08183Z" transform="translate(0)" style="fill:#39b54a"/><path d="M875.95083,555.62041q-.03281.22368-.06548.44731C875.90742,555.9187,875.929,555.76948,875.95083,555.62041Z" transform="translate(0)" style="fill:#39b54a"/><path d="M877.26846,545.73486q-.0312.26016-.0628.52017Q877.23724,545.995,877.26846,545.73486Z" transform="translate(0)" style="fill:#39b54a"/><path d="M876.6417,550.68467q-.03244.24316-.06494.48623Q876.60949,550.92781,876.6417,550.68467Z" transform="translate(0)" style="fill:#39b54a"/><polygon points="879.886 490.7 879.885 490.699 879.886 490.7 879.886 490.7" style="fill:#39b54a"/><path d="M863.43608,388.70918q.07127.2332.142.46675Q863.507,388.94258,863.43608,388.70918Z" transform="translate(0)" style="fill:#39b54a"/><path d="M864.86289,393.48833q.08094.27759.16143.55537Q864.94382,393.7659,864.86289,393.48833Z" transform="translate(0)" style="fill:#39b54a"/><path d="M845.63506,341.88164l.00683.01484Z" transform="translate(0)" style="fill:#39b54a"/><path d="M843.51182,337.32852l.02719.05737Z" transform="translate(0)" style="fill:#39b54a"/><path d="M861.957,383.98267c.02832.08842.0562.1771.08443.26552C862.01318,384.15972,861.98535,384.07109,861.957,383.98267Z" transform="translate(0)" style="fill:#39b54a"/><polygon points="841.355 332.857 841.355 332.857 841.356 332.86 841.355 332.857" style="fill:#39b54a"/><path d="M868.86787,408.34868c.01821.07349.03706.14673.05523.22022C868.90493,408.49536,868.88608,408.42217,868.86787,408.34868Z" transform="translate(0)" style="fill:#39b54a"/><path d="M875.80933,443.41274c.05078.3399.09956.68042.14936,1.02061C875.90884,444.09316,875.86011,443.75264,875.80933,443.41274Z" transform="translate(0)" style="fill:#39b54a"/><path d="M878.27842,463.67241c.03584.37813.07324.75586.108,1.13433C878.35166,464.42827,878.31431,464.05054,878.27842,463.67241Z" transform="translate(0)" style="fill:#39b54a"/><path d="M876.52012,448.405q.07858.57912.15473,1.159Q876.59795,448.98433,876.52012,448.405Z" transform="translate(0)" style="fill:#39b54a"/><path d="M875.03735,438.461c.04048.24863.07886.49794.1189.74677C875.11626,438.959,875.07783,438.70967,875.03735,438.461Z" transform="translate(0)" style="fill:#39b54a"/><path d="M877.75391,458.51436c.04423.40747.08906.81464.132,1.22251C877.84292,459.32905,877.79814,458.92183,877.75391,458.51436Z" transform="translate(0)" style="fill:#39b54a"/><path d="M879.15337,474.51206c.00991.14946.02153.29844.03125.4479C879.1749,474.81045,879.16328,474.66152,879.15337,474.51206Z" transform="translate(0)" style="fill:#39b54a"/><path d="M867.57065,403.2668c.04034.15356.0814.30683.12154.46049C867.65205,403.57368,867.61094,403.42036,867.57065,403.2668Z" transform="translate(0)" style="fill:#39b54a"/><path d="M866.23828,398.32813q.07815.28212.15645.5642Q866.31694,398.61,866.23828,398.32813Z" transform="translate(0)" style="fill:#39b54a"/><path d="M874.20254,433.53374c.01465.08286.02832.16611.04287.249C874.23081,433.69985,874.21719,433.61665,874.20254,433.53374Z" transform="translate(0)" style="fill:#39b54a"/><path d="M877.16812,453.43369q.07478.612.1478,1.22461Q877.24311,454.04563,877.16812,453.43369Z" transform="translate(0)" style="fill:#39b54a"/><path d="M878.74282,468.954c.025.30947.0522.61826.07652.92792C878.79507,469.57222,878.76787,469.26343,878.74282,468.954Z" transform="translate(0)" style="fill:#39b54a"/><path d="M866.39473,398.89233q.6008,2.182,1.17592,4.37447Q866.99527,401.07443,866.39473,398.89233Z" transform="translate(0)" style="fill:#39b54a"/><path d="M867.69219,403.72729q.602,2.30508,1.17568,4.62139Q868.29424,406.03225,867.69219,403.72729Z" transform="translate(0)" style="fill:#39b54a"/><path d="M868.9231,408.5689q3.04584,12.32914,5.27944,24.96484Q871.97429,420.90269,868.9231,408.5689Z" transform="translate(0)" style="fill:#39b54a"/><path d="M874.24541,433.78276q.41024,2.33424.79194,4.67828Q874.65562,436.11707,874.24541,433.78276Z" transform="translate(0)" style="fill:#39b54a"/><path d="M875.15625,439.20781q.33758,2.09883.65308,4.20493Q875.49483,441.3063,875.15625,439.20781Z" transform="translate(0)" style="fill:#39b54a"/><path d="M876.67485,449.564q.25627,1.93185.49327,3.86973Q876.93132,451.49571,876.67485,449.564Z" transform="translate(0)" style="fill:#39b54a"/><path d="M843.539,337.38589q1.06217,2.23989,2.096,4.49575Q844.6014,339.62571,843.539,337.38589Z" transform="translate(0)" style="fill:#39b54a"/><path d="M841.3564,332.86045q1.0919,2.22583,2.15542,4.46807Q842.44819,335.08643,841.3564,332.86045Z" transform="translate(0)" style="fill:#39b54a"/><path d="M845.64189,341.89648A377.4215,377.4215,0,0,1,861.957,383.98267,377.35082,377.35082,0,0,0,845.64189,341.89648Z" transform="translate(0)" style="fill:#39b54a"/><path d="M865.02432,394.0437q.61934,2.137,1.214,4.28443Q865.64349,396.18073,865.02432,394.0437Z" transform="translate(0)" style="fill:#39b54a"/><path d="M862.04146,384.24819q.71065,2.22451,1.39462,4.461Q862.75208,386.4728,862.04146,384.24819Z" transform="translate(0)" style="fill:#39b54a"/><path d="M863.57808,389.17593q.65485,2.15082,1.28481,4.3124Q864.23294,391.32674,863.57808,389.17593Z" transform="translate(0)" style="fill:#39b54a"/><path d="M875.95869,444.43335q.29055,1.9826.56143,3.97163Q876.25008,446.41572,875.95869,444.43335Z" transform="translate(0)" style="fill:#39b54a"/><path d="M879.18462,474.96q.50918,7.82739.70088,15.73862Q879.69544,482.78821,879.18462,474.96Z" transform="translate(0)" style="fill:#39b54a"/><path d="M877.88589,459.73687q.20691,1.96464.39253,3.93554Q878.09151,461.70183,877.88589,459.73687Z" transform="translate(0)" style="fill:#39b54a"/><path d="M877.20566,546.255q-.26931,2.2188-.564,4.42964Q876.93635,548.47377,877.20566,546.255Z" transform="translate(0)" style="fill:#39b54a"/><path d="M876.57676,551.1709q-.3,2.22891-.62593,4.44951Q876.27654,553.39978,876.57676,551.1709Z" transform="translate(0)" style="fill:#39b54a"/><path d="M875.88535,556.06772q-.33354,2.25536-.69365,4.502Q875.55154,558.323,875.88535,556.06772Z" transform="translate(0)" style="fill:#39b54a"/><path d="M875.13486,560.92651q-.37074,2.3001-.769,4.591Q874.764,563.22661,875.13486,560.92651Z" transform="translate(0)" style="fill:#39b54a"/><path d="M874.323,565.7666q-.41323,2.36851-.85557,4.72686Q873.90981,568.13513,874.323,565.7666Z" transform="translate(0)" style="fill:#39b54a"/><path d="M877.77314,541.30752q-.23971,2.21748-.50468,4.42734Q877.53358,543.52508,877.77314,541.30752Z" transform="translate(0)" style="fill:#39b54a"/><path d="M878.279,536.322q-.21175,2.23272-.44888,4.458Q878.06746,538.55485,878.279,536.322Z" transform="translate(0)" style="fill:#39b54a"/><path d="M879.66831,515.88423q-.103,2.5029-.23843,4.99736Q879.565,518.38711,879.66831,515.88423Z" transform="translate(0)" style="fill:#39b54a"/><path d="M879.41777,521.09351q-.13095,2.393-.29116,4.77832Q879.287,523.48662,879.41777,521.09351Z" transform="translate(0)" style="fill:#39b54a"/><path d="M879.102,526.22588q-.15791,2.31679-.34311,4.626Q878.94436,528.5428,879.102,526.22588Z" transform="translate(0)" style="fill:#39b54a"/><path d="M878.72212,531.29712q-.18472,2.26589-.39551,4.52427Q878.53777,533.56311,878.72212,531.29712Z" transform="translate(0)" style="fill:#39b54a"/><path d="M873.45229,570.57529a377.1509,377.1509,0,0,1-24.06206,79.0753A377.1458,377.1458,0,0,0,873.45229,570.57529Z" transform="translate(0)" style="fill:#39b54a"/><path d="M845.4624,658.49409q-.99206,2.15882-2.01025,4.30318Q844.47036,660.65294,845.4624,658.49409Z" transform="translate(0)" style="fill:#39b54a"/><path d="M847.441,654.11533q-.96219,2.16592-1.95049,4.31758Q846.47879,656.28128,847.441,654.11533Z" transform="translate(0)" style="fill:#39b54a"/><path d="M577.14287,667.14282V444.28569L800,555.71426,879.66851,515.88q.32482-7.90035.33149-15.88,0-4.66362-.11445-9.3L800,530.64282,577.14287,419.21426V332.85713H841.35479C779.51025,206.79072,649.89321,120,500,120c-209.86821,0-380,170.13179-380,380S290.13179,880,500,880c151.59409,0,282.44927-88.77153,343.43369-217.16382q-1.02634,2.1608-2.0789,4.30664Z" transform="translate(0)" style="fill:#39b54a"/><path d="M849.37539,649.68511q-.939,2.18854-1.90444,4.363Q848.43643,651.87376,849.37539,649.68511Z" transform="translate(0)" style="fill:#39b54a"/><path d="M845.4624,658.49409l.02813-.06118q.98832-2.15155,1.95049-4.31758l.02993-.06723q.9654-2.17434,1.90444-4.363l.01484-.03452a377.1509,377.1509,0,0,0,24.06206-79.0753l.01514-.08183q.44245-2.35825.85557-4.72686c.01445-.083.02842-.16611.04287-.24912q.39814-2.2908.769-4.591c.01914-.11884.03775-.23794.05684-.35683q.35991-2.24664.69365-4.502.033-.22353.06548-.44731.32571-2.2207.62593-4.44951.03273-.243.06494-.48623.29472-2.21082.564-4.42964.03158-.26.0628-.52017.26512-2.20979.50468-4.42734.0285-.26374.05694-.52749.23745-2.2251.44888-4.458c.01582-.16689.03208-.33369.04765-.50063q.21116-2.25828.39551-4.52427c.01211-.14849.0248-.29673.03672-.44522q.1856-2.3091.34311-4.626c.00806-.11807.0167-.236.02466-.354q.16039-2.38513.29116-4.77832c.00386-.07066.0083-.14122.01211-.21192q.13506-2.49448.23843-4.99736l.0002-.0042L800,555.71426,577.14287,444.28569V667.14282H841.35479q1.05263-2.14571,2.0789-4.30664l.01846-.03891Q844.47036,660.6531,845.4624,658.49409Z" transform="translate(0)"/><path d="M878.38643,464.80674q.19013,2.0702.35639,4.14722Q878.575,466.87739,878.38643,464.80674Z" transform="translate(0)" style="fill:#39b54a"/><path d="M878.81934,469.88188q.18128,2.31117.334,4.63018Q878.99979,472.19328,878.81934,469.88188Z" transform="translate(0)" style="fill:#39b54a"/><path d="M877.31592,454.6583q.22895,1.925.438,3.85606Q877.54421,456.58347,877.31592,454.6583Z" transform="translate(0)" style="fill:#39b54a"/><path d="M879.88555,490.70005l0-.00147q-.19007-7.91037-.70088-15.73862c-.00972-.14946-.02134-.29844-.03125-.4479q-.15359-2.31878-.334-4.63018c-.02432-.30966-.05147-.61845-.07652-.92792q-.16794-2.07657-.35639-4.14722c-.03477-.37847-.07217-.7562-.108-1.13433q-.18691-1.97058-.39253-3.93554c-.04292-.40787-.08775-.815-.132-1.22251q-.2097-1.93082-.438-3.85606-.07281-.6126-.1478-1.22461-.23687-1.93791-.49327-3.86973-.07691-.57963-.15473-1.159-.27012-1.98918-.56143-3.97163c-.0498-.34019-.09858-.68071-.14936-1.02061q-.31451-2.10636-.65308-4.20493c-.04-.24883-.07842-.49814-.1189-.74677q-.38181-2.344-.79194-4.67828c-.01455-.08291-.02822-.16616-.04287-.249q-2.22861-12.63077-5.27944-24.96484c-.01817-.07349-.037-.14673-.05523-.22022q-.57371-2.31636-1.17568-4.62139c-.04014-.15366-.0812-.30693-.12154-.46049q-.57554-2.19237-1.17592-4.37447-.07771-.28227-.15645-.5642-.59495-2.14725-1.214-4.28443-.08051-.27774-.16143-.55537-.63-2.16159-1.28481-4.3124-.07106-.23343-.142-.46675-.68407-2.23631-1.39462-4.461c-.02823-.08842-.05611-.1771-.08443-.26552a377.4215,377.4215,0,0,0-16.31514-42.08619l-.00683-.01484q-1.03366-2.25579-2.096-4.49575l-.02719-.05737q-1.06363-2.242-2.15542-4.46807l-.00161-.00332H577.14287v86.35713L800,530.64282Z" transform="translate(0)"/><path d="M875.15625,439.20781q.33758,2.09883.65308,4.20493Q875.49483,441.3063,875.15625,439.20781Z" transform="translate(0)"/><path d="M875.95869,444.43335q.29055,1.9826.56143,3.97163Q876.25008,446.41572,875.95869,444.43335Z" transform="translate(0)"/><path d="M876.67485,449.564q.25627,1.93185.49327,3.86973Q876.93132,451.49571,876.67485,449.564Z" transform="translate(0)"/><path d="M862.04146,384.24819q.71065,2.22451,1.39462,4.461Q862.75208,386.4728,862.04146,384.24819Z" transform="translate(0)"/><path d="M863.57808,389.17593q.65485,2.15082,1.28481,4.3124Q864.23294,391.32674,863.57808,389.17593Z" transform="translate(0)"/><path d="M877.31592,454.6583q.22895,1.925.438,3.85606Q877.54421,456.58347,877.31592,454.6583Z" transform="translate(0)"/><path d="M866.39473,398.89233q.6008,2.182,1.17592,4.37447Q866.99527,401.07443,866.39473,398.89233Z" transform="translate(0)"/><path d="M874.24541,433.78276q.41024,2.33424.79194,4.67828Q874.65562,436.11707,874.24541,433.78276Z" transform="translate(0)"/><path d="M865.02432,394.0437q.61934,2.137,1.214,4.28443Q865.64349,396.18073,865.02432,394.0437Z" transform="translate(0)"/><path d="M867.69219,403.72729q.602,2.30508,1.17568,4.62139Q868.29424,406.03225,867.69219,403.72729Z" transform="translate(0)"/><path d="M868.9231,408.5689q3.04584,12.32914,5.27944,24.96484Q871.97429,420.90269,868.9231,408.5689Z" transform="translate(0)"/><path d="M845.64189,341.89648A377.4215,377.4215,0,0,1,861.957,383.98267,377.35082,377.35082,0,0,0,845.64189,341.89648Z" transform="translate(0)"/><path d="M878.81934,469.88188q.18128,2.31117.334,4.63018Q878.99979,472.19328,878.81934,469.88188Z" transform="translate(0)"/><path d="M875.13486,560.92651q-.37074,2.3001-.769,4.591Q874.764,563.22661,875.13486,560.92651Z" transform="translate(0)"/><path d="M875.88535,556.06772q-.33354,2.25536-.69365,4.502Q875.55154,558.323,875.88535,556.06772Z" transform="translate(0)"/><path d="M874.323,565.7666q-.41323,2.36851-.85557,4.72686Q873.90981,568.13513,874.323,565.7666Z" transform="translate(0)"/><path d="M878.72212,531.29712q-.18472,2.26589-.39551,4.52427Q878.53777,533.56311,878.72212,531.29712Z" transform="translate(0)"/><path d="M879.102,526.22588q-.15791,2.31679-.34311,4.626Q878.94436,528.5428,879.102,526.22588Z" transform="translate(0)"/><path d="M878.279,536.322q-.21175,2.23272-.44888,4.458Q878.06746,538.55485,878.279,536.322Z" transform="translate(0)"/><path d="M877.77314,541.30752q-.23971,2.21748-.50468,4.42734Q877.53358,543.52508,877.77314,541.30752Z" transform="translate(0)"/><path d="M877.20566,546.255q-.26931,2.2188-.564,4.42964Q876.93635,548.47377,877.20566,546.255Z" transform="translate(0)"/><path d="M876.57676,551.1709q-.3,2.22891-.62593,4.44951Q876.27654,553.39978,876.57676,551.1709Z" transform="translate(0)"/><path d="M849.37539,649.68511q-.939,2.18854-1.90444,4.363Q848.43643,651.87376,849.37539,649.68511Z" transform="translate(0)"/><path d="M845.4624,658.49409q-.99206,2.15882-2.01025,4.30318Q844.47036,660.65294,845.4624,658.49409Z" transform="translate(0)"/><path d="M576.33084,665.38342V444.87216L796.84211,555.12779,875.672,515.71287Q875.99341,507.8957,876,500q0-4.61452-.11325-9.20206l-79.04464,39.52233L576.33084,420.06463v-85.4481H837.76158C776.568,209.87714,648.31539,124,500,124c-207.65907,0-376,168.34093-376,376S292.34093,876,500,876c149.99836,0,279.47612-87.8371,339.8186-214.87788q-1.01554,2.138-2.057,4.2613Z" transform="translate(0)"/><path d="M879.66831,515.88423q-.103,2.5029-.23843,4.99736Q879.565,518.38711,879.66831,515.88423Z" transform="translate(0)"/><path d="M847.441,654.11533q-.96219,2.16592-1.95049,4.31758Q846.47879,656.28128,847.441,654.11533Z" transform="translate(0)"/><path d="M873.45229,570.57529a377.1509,377.1509,0,0,1-24.06206,79.0753A377.1458,377.1458,0,0,0,873.45229,570.57529Z" transform="translate(0)"/><path d="M879.41777,521.09351q-.13095,2.393-.29116,4.77832Q879.287,523.48662,879.41777,521.09351Z" transform="translate(0)"/><path d="M843.539,337.38589q1.06217,2.23989,2.096,4.49575Q844.6014,339.62571,843.539,337.38589Z" transform="translate(0)"/><path d="M841.3564,332.86045q1.0919,2.22583,2.15542,4.46807Q842.44819,335.08643,841.3564,332.86045Z" transform="translate(0)"/><path d="M879.18462,474.96q.50918,7.82739.70088,15.73862Q879.69544,482.78821,879.18462,474.96Z" transform="translate(0)"/><path d="M877.88589,459.73687q.20691,1.96464.39253,3.93554Q878.09151,461.70183,877.88589,459.73687Z" transform="translate(0)"/><path d="M878.38643,464.80674q.19013,2.0702.35639,4.14722Q878.575,466.87739,878.38643,464.80674Z" transform="translate(0)"/><path d="M866.76885,400.28413q.33288,1.2271.66035,2.4565Q867.1043,401.51023,866.76885,400.28413Z" transform="translate(0)" style="fill:#39b54a"/><path d="M874.57744,435.74424c.14551.8542.29409,1.70727.43394,2.56338C874.87158,437.45151,874.723,436.59844,874.57744,435.74424Z" transform="translate(0)" style="fill:#39b54a"/><path d="M865.24814,394.83359q.35068,1.21986.69234,2.44356Q865.5977,396.05393,865.24814,394.83359Z" transform="translate(0)" style="fill:#39b54a"/><path d="M868.24009,405.88086c.197.7728.39765,1.54409.58989,2.3188C868.63779,407.425,868.43706,406.65366,868.24009,405.88086Z" transform="translate(0)" style="fill:#39b54a"/><path d="M872.48105,424.456q.26382,1.30765.51705,2.61909Q872.74328,425.76416,872.48105,424.456Z" transform="translate(0)" style="fill:#39b54a"/><path d="M862.00181,384.12148c.18554.58018.36284,1.16407.5457,1.74546C862.3646,385.28555,862.1874,384.70166,862.00181,384.12148Z" transform="translate(0)" style="fill:#39b54a"/><path d="M873.56279,430.04429q.24624,1.32275.48545,2.6479Q873.81117,431.36621,873.56279,430.04429Z" transform="translate(0)" style="fill:#39b54a"/><path d="M871.32324,418.918c.17949.82568.351,1.65434.5251,2.482C871.67422,420.57231,871.50273,419.74365,871.32324,418.918Z" transform="translate(0)" style="fill:#39b54a"/><path d="M863.66143,389.45562c.23276.76669.45869,1.53637.68676,2.30512C864.12012,390.992,863.89419,390.22236,863.66143,389.45562Z" transform="translate(0)" style="fill:#39b54a"/><path d="M846.47852,343.75483c.29663.65674.59458,1.3128.88759,1.97154C847.07305,345.06763,846.7752,344.41162,846.47852,343.75483Z" transform="translate(0)" style="fill:#39b54a"/><path d="M844.11353,338.61816q.47234,1.00533.939,2.01392Q844.5858,339.62347,844.11353,338.61816Z" transform="translate(0)" style="fill:#39b54a"/><path d="M841.713,333.59971c.30527.62568.60581,1.2541.90771,1.88169C842.3188,334.85376,842.01831,334.22539,841.713,333.59971Z" transform="translate(0)" style="fill:#39b54a"/><path d="M848.88735,349.2019c.23448.5417.47349,1.08106.70547,1.62408C849.36079,350.283,849.12183,349.7436,848.88735,349.2019Z" transform="translate(0)" style="fill:#39b54a"/><path d="M851.68984,355.83188c.21416.52178.42115,1.04727.63306,1.57022C852.111,356.87915,851.904,356.35371,851.68984,355.83188Z" transform="translate(0)" style="fill:#39b54a"/><path d="M857.70474,371.48765c.2666.74179.53379,1.4833.79589,2.22724C858.23853,372.971,857.97134,372.22944,857.70474,371.48765Z" transform="translate(0)" style="fill:#39b54a"/><path d="M855.758,366.19048q.42,1.11614.83281,2.23589Q856.17759,367.30686,855.758,366.19048Z" transform="translate(0)" style="fill:#39b54a"/><path d="M853.75542,360.98c.27563.70073.54546,1.4043.817,2.10708C854.30083,362.38428,854.03105,361.68071,853.75542,360.98Z" transform="translate(0)" style="fill:#39b54a"/><path d="M859.63682,376.99971c.22866.66865.46157,1.33535.68657,2.00566C860.09834,378.335,859.86548,377.66836,859.63682,376.99971Z" transform="translate(0)" style="fill:#39b54a"/><path d="M869.89365,412.61216c.20977.89126.41358,1.78486.61709,2.67861C870.30723,414.39707,870.10347,413.50347,869.89365,412.61216Z" transform="translate(0)" style="fill:#39b54a"/><path d="M876.63677,449.265c.11753.88091.22593,1.7647.33745,2.64751C876.8627,451.02964,876.75435,450.1459,876.63677,449.265Z" transform="translate(0)" style="fill:#39b54a"/><path d="M879.74683,486.20786c.03432.96192.06206,1.92539.08921,2.88911C879.80889,488.13325,879.78115,487.16978,879.74683,486.20786Z" transform="translate(0)" style="fill:#39b54a"/><path d="M878.5291,466.46694c.08028.918.163,1.83521.23677,2.755C878.69214,468.30215,878.60938,467.38491,878.5291,466.46694Z" transform="translate(0)" style="fill:#39b54a"/><path d="M877.97852,460.66572q.14428,1.40266.28007,2.80786Q878.12449,462.06792,877.97852,460.66572Z" transform="translate(0)" style="fill:#39b54a"/><path d="M877.34834,454.9437q.16385,1.38648.31538,2.77656Q877.50984,456.33086,877.34834,454.9437Z" transform="translate(0)" style="fill:#39b54a"/><path d="M879.49854,480.39907c.04692.9231.08349,1.84893.12377,2.77383C879.582,482.24805,879.54546,481.32222,879.49854,480.39907Z" transform="translate(0)" style="fill:#39b54a"/><path d="M873.12412,572.26235c-.18686.97051-.37178,1.94175-.566,2.90962C872.75234,574.2041,872.93726,573.23286,873.12412,572.26235Z" transform="translate(0)" style="fill:#39b54a"/><path d="M870.33638,585.48745c-.20972.91221-.42681,1.82153-.64307,2.73125C869.90962,587.309,870.12661,586.39966,870.33638,585.48745Z" transform="translate(0)" style="fill:#39b54a"/><path d="M871.95684,578.07588q-.48488,2.32142-.99786,4.63227Q871.47212,580.3973,871.95684,578.07588Z" transform="translate(0)" style="fill:#39b54a"/><path d="M869.04653,590.90181q-.33127,1.34927-.67163,2.69492Q868.71578,592.2512,869.04653,590.90181Z" transform="translate(0)" style="fill:#39b54a"/><path d="M867.66133,596.36025c-.22393.85669-.4459,1.71407-.67564,2.56841C867.21548,598.07437,867.43735,597.21689,867.66133,596.36025Z" transform="translate(0)" style="fill:#39b54a"/><path d="M864.08057,609.15288c-.2377.7939-.48223,1.58486-.72495,2.37661C863.59839,610.73774,863.84282,609.94683,864.08057,609.15288Z" transform="translate(0)" style="fill:#39b54a"/><path d="M862.44707,614.45649q-.37815,1.19839-.764,2.39336Q862.06894,615.65483,862.44707,614.45649Z" transform="translate(0)" style="fill:#39b54a"/><path d="M866.03,602.3979q-.46992,1.68326-.95513,3.36016Q865.55986,604.08111,866.03,602.3979Z" transform="translate(0)" style="fill:#39b54a"/><path d="M877.03271,547.61323c-.135,1.08042-.26821,2.16143-.41235,3.239C876.7645,549.77461,876.89761,548.69365,877.03271,547.61323Z" transform="translate(0)" style="fill:#39b54a"/><path d="M878.26011,536.50952c-.10445,1.0957-.2167,2.18906-.33047,3.282C878.04341,538.69858,878.15562,537.60518,878.26011,536.50952Z" transform="translate(0)" style="fill:#39b54a"/><path d="M879.33052,522.52568q-.3471,5.93607-.8751,11.82227Q878.98291,528.462,879.33052,522.52568Z" transform="translate(0)" style="fill:#39b54a"/><path d="M879.61631,516.97417q-.07485,1.70288-.16231,3.40239Q879.54381,518.67757,879.61631,516.97417Z" transform="translate(0)" style="fill:#39b54a"/><path d="M860.70244,619.83911c-.24746.74507-.49306,1.491-.745,2.234C860.20942,621.33013,860.455,620.58418,860.70244,619.83911Z" transform="translate(0)" style="fill:#39b54a"/><path d="M876.35137,552.77305q-.42444,3.055-.89737,6.09419Q875.92679,555.828,876.35137,552.77305Z" transform="translate(0)" style="fill:#39b54a"/><path d="M877.68447,542.0856q-.17856,1.62069-.36909,3.23789Q877.50757,543.70681,877.68447,542.0856Z" transform="translate(0)" style="fill:#39b54a"/><path d="M874.14434,566.75361q-.26507,1.49591-.54082,2.98814Q873.8803,568.24988,874.14434,566.75361Z" transform="translate(0)" style="fill:#39b54a"/><path d="M875.08071,561.25005c-.16479,1.01684-.33725,2.0312-.5101,3.04531C874.74351,563.2812,874.91587,562.26694,875.08071,561.25005Z" transform="translate(0)" style="fill:#39b54a"/><path d="M849.876,648.4978c-.157.36934-.30957.741-.46768,1.10982C849.56646,649.23887,849.719,648.86719,849.876,648.4978Z" transform="translate(0)" style="fill:#39b54a"/><path d="M577.14287,444.28569,800,555.71426l79.661-39.83047C879.87778,510.61509,880,505.322,880,500c0-3.10825-.0502-6.20459-.12441-9.295L800,530.64282,577.14287,419.21426V332.85713h264.2023q-4.91793-10.02393-10.39214-19.71431H560V686.85713H830.953q5.47843-9.68232,10.39214-19.71431H577.14287Z" transform="translate(0)" style="fill:#39b54a"/><path d="M844.9769,659.53335q-.4327.9342-.87128,1.86509Q844.54331,660.467,844.9769,659.53335Z" transform="translate(0)" style="fill:#39b54a"/><path d="M856.37,632.18057c-.24946.67236-.50522,1.3417-.7584,2.01225C855.86479,633.52227,856.12046,632.85293,856.37,632.18057Z" transform="translate(0)" style="fill:#39b54a"/><path d="M854.403,637.3562q-.40914,1.05491-.8249,2.10645Q853.99341,638.41082,854.403,637.3562Z" transform="translate(0)" style="fill:#39b54a"/><path d="M841.72212,666.38188c.28271-.57963.56138-1.16152.84126-1.74277C842.28354,665.22031,842.00488,665.80229,841.72212,666.38188Z" transform="translate(0)" style="fill:#39b54a"/><path d="M852.31592,642.61523c-.2647.65328-.52793,1.30733-.79614,1.95879C851.788,643.92256,852.05117,643.26851,852.31592,642.61523Z" transform="translate(0)" style="fill:#39b54a"/><path d="M858.63828,625.887q-.35089.99969-.70522,1.99771Q858.28939,626.88759,858.63828,625.887Z" transform="translate(0)" style="fill:#39b54a"/><path d="M847.26011,654.51582c-.24688.55391-.49932,1.10479-.74873,1.65732C846.76084,655.62061,847.01328,655.06978,847.26011,654.51582Z" transform="translate(0)" style="fill:#39b54a"/><path d="M879.01475,472.59067q.1401,1.96612.26142,3.93731Q879.156,474.55637,879.01475,472.59067Z" transform="translate(0)" style="fill:#39b54a"/><path d="M875.58892,441.99341q.2748,1.7934.53266,3.59223Q875.86355,443.78675,875.58892,441.99341Z" transform="translate(0)" style="fill:#39b54a"/><rect x="260" y="366" width="240" height="28" style="fill:#39b54a"/><rect x="180" y="486" width="320" height="28" style="fill:#39b54a"/><rect x="297.6" y="606" width="200" height="28" style="fill:#39b54a"/></svg>