<svg id="图层_1" data-name="图层 1" xmlns="http://www.w3.org/2000/svg" viewBox="0 0 1000 1000"><title>Tianyi-Drive</title><path d="M244.6524,647.776c-35.8049-18.7192-78.8367-65.4875-68.4907-119.3064,10.6181-55.2342,69.5742-76.8819,74.0142-78.433,47.51-16.5976,88.6283,3.8459,96.1079,7.7329,5.5585-64.9571,47.9784-115.3417,98.3174-123.7252,51.0039-8.4943,94.44,28.7438,99.422,33.1406a136.4607,136.4607,0,0,1,35.35,49.7111c23.0035-30.2808,66.1247-36.0515,95.0033-14.361,26.898,20.2029,34.6754,59.1487,16.57,89.48,4.6647-1.6443,56.5427-18.9652,99.4221,13.2563,6.9015,5.1861,31.5963,25.2015,37.5594,60.7579,5.336,31.8174-6.2166,64.8135-28.7219,85.0611-23.1019,20.7843-52.1264,23.08-74.5666,24.8555a170.7174,170.7174,0,0,1-32.5883-.5523A87.15,87.15,0,0,0,704.14,690.8392c28.96,29.4046,81.6172,40.0474,123.788,21.0088,37.8914-17.1066,53.2575-51.8292,59.6532-66.2813,22.4976-50.8373,8.3244-98.1243,4.4188-110.469-2.1886-6.9174-25.3093-76.1633-92.7939-101.6314a142.09,142.09,0,0,0-41.9782-8.8375c-.4728-5.3138-5.9418-56.5686-53.0251-85.0611-46.7813-28.31-94.3942-9.7907-99.422-7.7328a178.0194,178.0194,0,0,0-166.8081-70.7c-14.3113,1.8409-53.6266,7.4229-90.5846,38.6641a169.6926,169.6926,0,0,0-51.92,78.4329,175.8271,175.8271,0,0,0-75.1188,6.6282c-8.59,2.7278-75.1245,25.1394-106.05,92.7939-33.5416,73.3773-3.6918,159.15,44.1876,205.4722,28.3926,27.469,60.5688,38.5916,70.7,41.9782,30.042,10.0423,40.4132,5.0627,104.9455,6.6281,55.2182,1.34,110.5164-2.2909,165.7034,0,7.2.2989,26.4439,1.2046,38.6641-11.0469a36.7837,36.7837,0,0,0,9.9422-20.9891,40.34,40.34,0,0,0-6.6281-24.3031c-11.9126-17.5716-42.6539-17.26-74.0142-16.57-82.4835,1.8134-104.4025,3.1168-132.5627,2.2094C288.8948,659.539,265.7237,658.7923,244.6524,647.776Z" style="fill:#23bafb;isolation:isolate"/><path d="M692.0516,675.3933c-18.5664-9.228-29.8292-18.3124-38.6641-28.722a108.2484,108.2484,0,0,1-20.871-38.6641h54.238L595.6176,486.4914,504.4808,608.0072h64.6515c2.7386,21.1872,13.6228,73.0487,58.8473,106.05,51.7687,37.7769,113.5442,25.3062,139.36,20.0948a218.3165,218.3165,0,0,0,65.0079-24.5136C809.6706,707.6864,742.9139,700.6729,692.0516,675.3933Z" style="fill:#ff5876"/><rect width="1000" height="1000" style="fill:none"/></svg>