<?xml version="1.0" encoding="utf-8"?>
<!-- Generator: Adobe Illustrator 23.0.1, SVG Export Plug-In . SVG Version: 6.00 Build 0)  -->
<svg version="1.1" id="图层_1" xmlns="http://www.w3.org/2000/svg" xmlns:xlink="http://www.w3.org/1999/xlink" x="0px" y="0px"
	 viewBox="0 0 1000.1 1000" style="enable-background:new 0 0 1000.1 1000;" xml:space="preserve">
<style type="text/css">
	.st0{fill:#188ADF;}
	.st1{fill:#FFFFFF;}
	.st2{fill:#BBDFF6;}
</style>
<rect x="0.1" class="st0" width="1000" height="1000"/>
<path class="st1" d="M723.1,0l-148,150c2.5-14.3,5.6-32.9,9-55c2.5-16.5,3.6-24.4-1-33c-5.3-9.8-16.2-17-28-18
	c-14.3-1.2-24.7,7.2-28,10c-14.5,12.1-16,29-21,62c-7,46.1,22.4-162.2-16,94c-6.3,41.8-9.3,62.8-2,71c4.4,4.9,10.4,7.8,60,10
	c28.2,1.2,39.4,0.9,74,1c53.5,0.2,65.2,1.2,77-9c2.1-1.8,17.2-15.3,15-33c-2-16.2-17.2-25-19-26c-9.8-5.5-17.9-4.2-46-3
	c-15.8,0.7-28.6,0.9-37,1l223-222H723.1z"/>
<path class="st1" d="M1000.1,176c-177.6,182-310.9,314.8-356,356c-6.4,5.8-20.1,17.8-41,24c-37.4,11.1-87.6,1-118-28
	c-11.9-11.3-18.2-23.2-34-26c-13.1-2.3-26.4,1.8-36,11c-1.4,1.4-13.1,13.3-12,30c0.7,10.6,6.3,18.8,17,30c26.1,27.2,53.5,41.2,55,42
	c44.3,22.2,84.5,23,95,23c25.7,0.1,51.1-4.7,75-14c14.5-5.7,28.2-13.1,41-22l314-315V176z"/>
<path class="st2" d="M277,1000l148-150c-2.5,14.3-5.6,33-9,55c-2.5,16.5-3.6,24.4,1,33c5.3,9.8,16.2,17,28,18
	c14.3,1.2,24.7-7.2,28-10c14.5-12.1,16-29,21-62c7-46.1-22.4,162.2,16-94c6.3-41.8,9.3-62.8,2-71c-4.4-4.9-10.4-7.8-60-10
	c-28.2-1.2-39.4-0.9-74-1c-53.5-0.2-65.2-1.2-77,9c-2.1,1.8-17.2,15.3-15,33c2,16.2,17.2,25,19,26c9.8,5.5,17.9,4.2,46,3
	c15.8-0.7,28.6-0.9,37-1l-223,222H277z"/>
<path class="st2" d="M0,824c177.6-182,310.9-314.8,356-356c6.4-5.8,20.1-17.8,41-24c37.4-11.1,87.6-1,118,28
	c11.9,11.3,18.2,23.2,34,26c13.1,2.3,26.4-1.8,36-11c1.4-1.4,13.1-13.3,12-30c-0.7-10.6-6.3-18.8-17-30c-26.1-27.2-53.5-41.2-55-42
	c-44.3-22.2-84.5-23-95-23c-25.7-0.1-51.1,4.7-75,14c-14.5,5.7-28.2,13.1-41,22L0,713L0,824z"/>
</svg>
