<svg id="图层_1" data-name="图层 1" xmlns="http://www.w3.org/2000/svg" viewBox="0 0 1000 1000"><title>W3School</title><rect width="1000" height="1000" style="fill:#c1272d"/><path d="M148.17,335.3191,518.2128,122.383,851.83,309.7872V688.6809L520.9362,877.617l-336-189.1064V516.7659h88.5106V641.0213L518.2128,781.617,762.4681,641.7021V357.7872L518.2128,217.8723,316.6809,334.8085,383.5745,375.66l147.5744-81.1915,35.7447,56.6808-27.5744,104.17c49.9073-14.9573,102.63,1.35,130.8936,39.766,42.5777,57.8713,2.503,129.0143-1,135-29.9511,51.1786-86.2678,64.46-114,71a222.6639,222.6639,0,0,1-75.6383,4.4468V630.4681s42.6679,2.1052,56.6808,0c21.1726-3.1808,39.5261-6.432,54.6383-21.4468,3.565-3.542,25.598-25.4331,18.3192-50.9362-7.4315-26.0378-38.7759-32.572-41-33-20.17-3.8815-36.3636,5.0391-49,12a109.9248,109.9248,0,0,0-37.0851,33.6383l-32.17-52.5958L476,412.9362l-97.0213,56.17Z" style="fill:#fff"/></svg>