<svg id="图层_1" data-name="图层 1" xmlns="http://www.w3.org/2000/svg" viewBox="0 0 1000 1000"><title>Wenshushu</title><rect width="1000" height="1000" style="fill:#5189ff"/><path d="M421.9083,284.2484l34.9147-35.7143q3.998,3.1983,11.4606,8.7953,44.7761,33.8487,78.6247,66.6312l-32.516,33.3155H670.3092a383.0317,383.0317,0,0,0,61.3006-5.597v53.0384a362.15,362.15,0,0,0-60.2345-5.33H623.9339q-36.2473,113.0064-89.5522,188.6994Q626.3326,662.4467,750,689.6322A147.5315,147.5315,0,0,0,706.823,744.27,739.9767,739.9767,0,0,1,502.1322,625.9328q-73.0277,65.8315-204.6908,125.5331A165.5919,165.5919,0,0,0,250,704.5576q138.5873-37.8465,216.6844-114.8721Q399.2537,509.9947,357.1429,399.387H328.0917a517.44,517.44,0,0,0-61.5672,4.7974V351.6791a341.472,341.472,0,0,0,59.435,5.597H505.064Q460.8209,309.3018,421.9083,284.2484ZM413.9126,399.387q30.6447,79.4242,85.5544,150.5863,42.3774-60.7676,69.2963-150.5863Z" style="fill:#fff"/></svg>