<svg id="图层_1" data-name="图层 1" xmlns="http://www.w3.org/2000/svg" viewBox="0 0 1000 1000"><title>Xunlei</title><rect width="1000" height="1000" style="fill:#2f71f1"/><path d="M601.4706,461.9485c55.0607-19.0631,107.8138-.2243,167.647,22.0589A602.1422,602.1422,0,0,1,875,535.8456c-59.6388,5.967-110.5912,14.229-151.1029,22.0588-75.3,14.5535-112.95,21.83-132.353,31.9853-17.908,9.3726-29.7169,18.256-40.8088,13.2353-21.89-9.9085-27.5259-67.8782-2.2059-104.7794C564.4643,475.1222,588.38,466.4809,601.4706,461.9485Z" style="fill:#f7f7f7"/><path d="M125,238.0515c68.3057,17.89,114.4774,30.7869,127.9412,36.397a39.5827,39.5827,0,0,0,16.5441,3.3089c10.0058-.2484,16.7945-4.55,20.9559-6.6177,22.15-11.008,51.23.8187,57.3529,3.3088,13.3192,5.4169,21.8477,14.1778,38.603,31.9853,29.4548,31.3047,31.5619,44.2521,44.1176,46.3236,19.2522,3.1761,37.3518-23.51,49.6324-38.603,26.8275-32.9708,78.1791-56.907,180.8823-104.7794a1227.5988,1227.5988,0,0,1,168.75-63.9706q-49.0809,78.3088-98.1618,156.6177L762.5,299.8162c-10.4786,11.6407-23.8868,27.2321-38.6029,46.3235-15.58,20.2124-37.8428,49.0938-58.4559,87.1324-37.2457,68.7314-26.5787,88.8808-56.25,109.1911-21.7447,14.8845-45.4661,16.379-50.7353,35.2942-3.8364,13.7718,4.9376,27.1225,7.7206,31.9852,22.43,39.1932,61.8983,123.9725,115.8088,244.853a1044.2335,1044.2335,0,0,0-91.5441-89.3382c-39.6939-34.2312-75.9048-65.4388-130.1471-94.853-47.11-25.5464-52.7528-19.9822-81.6176-40.8088-12.113-8.74-58.9189-43.331-83.8236-101.4706-39.3895-91.9543,17.6988-145.4849-27.5735-199.6324-13.4552-16.0929-36.9113-30.2139-83.8235-58.4558C159.73,255.7537,139.3127,245.1278,125,238.0515Z" style="fill:#fff"/></svg>