<?xml version="1.0" encoding="utf-8"?>
<!-- Generator: Adobe Illustrator 23.0.1, SVG Export Plug-In . SVG Version: 6.00 Build 0)  -->
<svg version="1.1" id="图层_1" xmlns="http://www.w3.org/2000/svg" xmlns:xlink="http://www.w3.org/1999/xlink" x="0px" y="0px"
	 viewBox="0 0 1000 1000" style="enable-background:new 0 0 1000 1000;" xml:space="preserve">
<style type="text/css">
	.st0{fill:#0084FF;}
	.st1{clip-path:url(#SVGID_2_);}
	.st2{fill:#FFFFFF;}
</style>
<title>zhihu</title>
<circle class="st0" cx="500" cy="500" r="500"/>
<g>
	<g>
		<defs>
			<rect id="SVGID_1_" x="250" y="232" width="500" height="495.9"/>
		</defs>
		<clipPath id="SVGID_2_">
			<use xlink:href="#SVGID_1_"  style="overflow:visible;"/>
		</clipPath>
		<g class="st1">
			<path class="st2" d="M542,671.6h37.1l13.5,47l65.4-47h92v-375H542V671.6z M586,338.3h121.5v290.5h-43l-55.2,42.1l-12-42.1H586
				V338.3z M249.9,721.5c26.5,9.5,55.8,7.1,80.3-6.7c39.5-23.3,68.7-126.2,68.7-126.2l93.4,115.1c0,0,8.5-54.8-1.5-70.2
				c-10-15.5-64.2-77.7-64.2-77.7l-23.8,20.8l16.9-68.1h101c0,0,0-40.1-19.8-42.3c-19.8-2.3-81.3,0-81.3,0V341.5h90.8
				c0,0-1-41.5-18.7-41.5H343.4l23-67.9c0,0-37.4,2.2-50.5,25.5c-13.2,23.3-56,143.7-56,143.7s14.2,6.6,38.4-11.2
				c15.5-12.6,26.7-29.7,32-49l44-2.2l1.2,127.4c0,0-75.8-1.1-91.2,0c-15.4,1.1-24.2,42.3-24.2,42.3h115.4c0,0-9.9,70.1-39.5,121.4
				C306.2,681.5,249.9,721.5,249.9,721.5L249.9,721.5z"/>
		</g>
	</g>
</g>
</svg>
